<svg xmlns="http://www.w3.org/2000/svg" xmlns:xlink="http://www.w3.org/1999/xlink" width="200" zoomAndPan="magnify" viewBox="0 0 150 30.000001" height="40" preserveAspectRatio="xMidYMid meet" version="1.0"><defs><clipPath id="a38ba78b65"><path d="M 2.417969 0 L 147.578125 0 L 147.578125 29.03125 L 2.417969 29.03125 Z M 2.417969 0 " clip-rule="nonzero"/></clipPath><clipPath id="34496e736d"><path d="M 77.628906 4.425781 L 98.082031 4.425781 L 98.082031 24.878906 L 77.628906 24.878906 Z M 77.628906 4.425781 " clip-rule="nonzero"/></clipPath><clipPath id="b74ba4864e"><path d="M 87.855469 4.425781 C 82.207031 4.425781 77.628906 9.003906 77.628906 14.652344 C 77.628906 20.300781 82.207031 24.878906 87.855469 24.878906 C 93.503906 24.878906 98.082031 20.300781 98.082031 14.652344 C 98.082031 9.003906 93.503906 4.425781 87.855469 4.425781 Z M 87.855469 4.425781 " clip-rule="nonzero"/></clipPath><clipPath id="fcef09da89"><path d="M 80.140625 7.28125 L 95.382812 7.28125 L 95.382812 20.347656 L 80.140625 20.347656 Z M 80.140625 7.28125 " clip-rule="nonzero"/></clipPath><clipPath id="d75a34a672"><path d="M 101.714844 4.425781 L 122.167969 4.425781 L 122.167969 24.878906 L 101.714844 24.878906 Z M 101.714844 4.425781 " clip-rule="nonzero"/></clipPath><clipPath id="f422cdcc35"><path d="M 111.941406 4.425781 C 106.292969 4.425781 101.714844 9.003906 101.714844 14.652344 C 101.714844 20.300781 106.292969 24.878906 111.941406 24.878906 C 117.589844 24.878906 122.167969 20.300781 122.167969 14.652344 C 122.167969 9.003906 117.589844 4.425781 111.941406 4.425781 Z M 111.941406 4.425781 " clip-rule="nonzero"/></clipPath><clipPath id="bae48b4f47"><path d="M 105.304688 7.878906 L 119.097656 7.878906 L 119.097656 20.21875 L 105.304688 20.21875 Z M 105.304688 7.878906 " clip-rule="nonzero"/></clipPath><clipPath id="202d4fb030"><path d="M 125.796875 4.425781 L 146.25 4.425781 L 146.25 24.878906 L 125.796875 24.878906 Z M 125.796875 4.425781 " clip-rule="nonzero"/></clipPath><clipPath id="029c4a061a"><path d="M 136.023438 4.425781 C 130.375 4.425781 125.796875 9.003906 125.796875 14.652344 C 125.796875 20.300781 130.375 24.878906 136.023438 24.878906 C 141.671875 24.878906 146.25 20.300781 146.25 14.652344 C 146.25 9.003906 141.671875 4.425781 136.023438 4.425781 Z M 136.023438 4.425781 " clip-rule="nonzero"/></clipPath><clipPath id="5d0e3551ff"><path d="M 129.878906 6.34375 L 142.214844 6.34375 L 142.214844 21.585938 L 129.878906 21.585938 Z M 129.878906 6.34375 " clip-rule="nonzero"/></clipPath><clipPath id="8858ec6410"><path d="M 3.75 3.882812 L 24.746094 3.882812 L 24.746094 24.878906 L 3.75 24.878906 Z M 3.75 3.882812 " clip-rule="nonzero"/></clipPath><clipPath id="ff27439297"><path d="M 14.25 3.882812 C 8.449219 3.882812 3.75 8.582031 3.75 14.378906 C 3.75 20.179688 8.449219 24.878906 14.25 24.878906 C 20.046875 24.878906 24.746094 20.179688 24.746094 14.378906 C 24.746094 8.582031 20.046875 3.882812 14.25 3.882812 Z M 14.25 3.882812 " clip-rule="nonzero"/></clipPath><clipPath id="2f53f36a74"><path d="M 8 6.632812 L 20.339844 6.632812 L 20.339844 21.875 L 8 21.875 Z M 8 6.632812 " clip-rule="nonzero"/></clipPath><clipPath id="1dd0bef005"><path d="M 8 7 L 20 7 L 20 21.875 L 8 21.875 Z M 8 7 " clip-rule="nonzero"/></clipPath><clipPath id="5d7601714f"><path d="M 28.375 3.882812 L 49.375 3.882812 L 49.375 24.878906 L 28.375 24.878906 Z M 28.375 3.882812 " clip-rule="nonzero"/></clipPath><clipPath id="e54ee051ee"><path d="M 38.875 3.882812 C 33.078125 3.882812 28.375 8.582031 28.375 14.378906 C 28.375 20.179688 33.078125 24.878906 38.875 24.878906 C 44.675781 24.878906 49.375 20.179688 49.375 14.378906 C 49.375 8.582031 44.675781 3.882812 38.875 3.882812 Z M 38.875 3.882812 " clip-rule="nonzero"/></clipPath><clipPath id="c88dc0bb9a"><path d="M 31 8 L 46 8 L 46 21 L 31 21 Z M 31 8 " clip-rule="nonzero"/></clipPath><clipPath id="3533520e8e"><path d="M 30.140625 11.332031 L 44.871094 7.425781 L 47.664062 17.949219 L 32.929688 21.855469 Z M 30.140625 11.332031 " clip-rule="nonzero"/></clipPath><clipPath id="e9308850e6"><path d="M 30.140625 11.332031 L 44.871094 7.425781 L 47.664062 17.949219 L 32.929688 21.855469 Z M 30.140625 11.332031 " clip-rule="nonzero"/></clipPath><clipPath id="2fe98570ef"><path d="M 32 9 L 46 9 L 46 20 L 32 20 Z M 32 9 " clip-rule="nonzero"/></clipPath><clipPath id="d553aaa990"><path d="M 30.140625 11.332031 L 44.871094 7.425781 L 47.664062 17.949219 L 32.929688 21.855469 Z M 30.140625 11.332031 " clip-rule="nonzero"/></clipPath><clipPath id="56757e3366"><path d="M 30.140625 11.332031 L 44.871094 7.425781 L 47.664062 17.949219 L 32.929688 21.855469 Z M 30.140625 11.332031 " clip-rule="nonzero"/></clipPath><clipPath id="8820472309"><path d="M 53.003906 4.152344 L 74 4.152344 L 74 25.152344 L 53.003906 25.152344 Z M 53.003906 4.152344 " clip-rule="nonzero"/></clipPath><clipPath id="b90c3b73c8"><path d="M 63.503906 4.152344 C 57.703125 4.152344 53.003906 8.855469 53.003906 14.652344 C 53.003906 20.449219 57.703125 25.152344 63.503906 25.152344 C 69.300781 25.152344 74 20.449219 74 14.652344 C 74 8.855469 69.300781 4.152344 63.503906 4.152344 Z M 63.503906 4.152344 " clip-rule="nonzero"/></clipPath><clipPath id="9046396e59"><path d="M 57 6 L 70 6 L 70 23 L 57 23 Z M 57 6 " clip-rule="nonzero"/></clipPath><clipPath id="05c4154174"><path d="M 58.753906 5.277344 L 70.273438 6.742188 L 68.261719 22.582031 L 56.742188 21.117188 Z M 58.753906 5.277344 " clip-rule="nonzero"/></clipPath><clipPath id="48ad34c325"><path d="M 58.753906 5.277344 L 70.273438 6.742188 L 68.261719 22.582031 L 56.742188 21.117188 Z M 58.753906 5.277344 " clip-rule="nonzero"/></clipPath><clipPath id="dc67e6cb1a"><path d="M 57 6 L 70 6 L 70 22 L 57 22 Z M 57 6 " clip-rule="nonzero"/></clipPath><clipPath id="eaac0fcfa1"><path d="M 58.753906 5.277344 L 70.273438 6.742188 L 68.261719 22.582031 L 56.742188 21.117188 Z M 58.753906 5.277344 " clip-rule="nonzero"/></clipPath><clipPath id="5d0e304089"><path d="M 58.753906 5.277344 L 70.273438 6.742188 L 68.261719 22.582031 L 56.742188 21.117188 Z M 58.753906 5.277344 " clip-rule="nonzero"/></clipPath></defs><g clip-path="url(#a38ba78b65)"><path fill="#ffffff" d="M 2.417969 0 L 147.582031 0 L 147.582031 29.03125 L 2.417969 29.03125 Z M 2.417969 0 " fill-opacity="1" fill-rule="nonzero"/><path fill="#ffffff" d="M 2.417969 0 L 147.582031 0 L 147.582031 29.03125 L 2.417969 29.03125 Z M 2.417969 0 " fill-opacity="1" fill-rule="nonzero"/></g><g clip-path="url(#34496e736d)"><g clip-path="url(#b74ba4864e)"><path fill="#e4bddb" d="M 77.628906 4.425781 L 98.082031 4.425781 L 98.082031 24.878906 L 77.628906 24.878906 Z M 77.628906 4.425781 " fill-opacity="1" fill-rule="nonzero"/></g></g><g clip-path="url(#fcef09da89)"><path fill="#f7ecf5" d="M 95.09375 15.644531 L 93.304688 15.535156 L 93.050781 19.820312 C 93.039062 20.011719 92.875 20.15625 92.683594 20.144531 L 82.609375 19.542969 C 82.417969 19.53125 82.273438 19.367188 82.285156 19.179688 L 82.539062 14.894531 L 80.578125 14.777344 C 80.296875 14.761719 80.152344 14.4375 80.328125 14.21875 L 84.566406 9 C 84.636719 8.914062 84.742188 8.867188 84.855469 8.875 L 88.421875 9.085938 L 88.507812 7.617188 C 88.519531 7.429688 88.683594 7.285156 88.871094 7.296875 L 91.582031 7.457031 C 91.773438 7.46875 91.917969 7.628906 91.90625 7.820312 L 91.820312 9.289062 L 91.90625 9.292969 C 92.023438 9.300781 92.128906 9.367188 92.1875 9.46875 L 95.414062 15.128906 C 95.550781 15.367188 95.367188 15.660156 95.09375 15.644531 Z M 95.09375 15.644531 " fill-opacity="1" fill-rule="nonzero"/></g><path fill="#ad5590" d="M 94.269531 14.542969 L 91.730469 10.089844 C 91.695312 10.027344 91.625 9.984375 91.550781 9.980469 L 91.074219 9.949219 L 91.167969 8.359375 C 91.171875 8.300781 91.152344 8.242188 91.113281 8.199219 C 91.074219 8.15625 91.019531 8.128906 90.960938 8.125 L 89.410156 8.03125 C 89.289062 8.023438 89.183594 8.117188 89.175781 8.242188 L 89.082031 9.832031 L 85.109375 9.59375 C 85.109375 9.59375 85.105469 9.59375 85.105469 9.59375 C 85.097656 9.59375 85.09375 9.59375 85.085938 9.59375 C 85.082031 9.59375 85.078125 9.59375 85.078125 9.59375 C 85.070312 9.597656 85.0625 9.597656 85.050781 9.597656 C 85.050781 9.597656 85.046875 9.601562 85.046875 9.601562 C 85.039062 9.601562 85.03125 9.605469 85.027344 9.605469 C 85.023438 9.605469 85.019531 9.609375 85.019531 9.609375 C 85.011719 9.613281 85.003906 9.613281 85 9.617188 C 84.996094 9.617188 84.996094 9.621094 84.996094 9.621094 C 84.988281 9.625 84.980469 9.628906 84.972656 9.632812 C 84.96875 9.632812 84.96875 9.636719 84.96875 9.636719 C 84.960938 9.640625 84.957031 9.644531 84.949219 9.652344 C 84.949219 9.652344 84.945312 9.652344 84.945312 9.65625 C 84.941406 9.660156 84.933594 9.667969 84.929688 9.671875 C 84.929688 9.671875 84.925781 9.675781 84.925781 9.675781 L 81.589844 13.78125 C 81.539062 13.847656 81.527344 13.933594 81.558594 14.011719 C 81.59375 14.085938 81.667969 14.136719 81.75 14.144531 L 83.285156 14.234375 L 83.023438 18.640625 C 83.019531 18.699219 83.039062 18.757812 83.078125 18.800781 C 83.117188 18.84375 83.171875 18.871094 83.230469 18.875 L 86.726562 19.082031 L 92.144531 19.40625 C 92.152344 19.40625 92.15625 19.40625 92.160156 19.40625 C 92.214844 19.40625 92.265625 19.386719 92.308594 19.351562 C 92.351562 19.3125 92.378906 19.257812 92.382812 19.199219 L 92.644531 14.792969 L 94.066406 14.878906 C 94.070312 14.878906 94.074219 14.878906 94.078125 14.878906 C 94.15625 14.878906 94.226562 14.839844 94.269531 14.773438 C 94.308594 14.703125 94.3125 14.617188 94.269531 14.542969 Z M 90.710938 8.554688 L 90.578125 10.785156 L 89.472656 10.71875 L 89.511719 10.082031 L 89.605469 8.488281 Z M 85.0625 10.214844 L 85.558594 11.117188 C 85.542969 11.128906 85.53125 11.140625 85.519531 11.15625 L 83.417969 13.796875 L 82.210938 13.726562 Z M 83.738281 14.109375 L 85.785156 11.53125 L 87.347656 14.371094 C 87.386719 14.441406 87.453125 14.484375 87.53125 14.488281 L 88.800781 14.5625 L 88.550781 18.746094 L 86.976562 18.652344 L 87.109375 16.425781 C 87.128906 16.121094 87.027344 15.828125 86.824219 15.601562 C 86.621094 15.375 86.34375 15.238281 86.039062 15.21875 C 85.734375 15.203125 85.441406 15.304688 85.214844 15.503906 C 84.984375 15.707031 84.851562 15.984375 84.832031 16.289062 L 84.699219 18.515625 L 83.480469 18.445312 Z M 85.144531 18.542969 L 85.277344 16.316406 C 85.289062 16.132812 85.371094 15.960938 85.507812 15.835938 C 85.648438 15.714844 85.828125 15.652344 86.011719 15.664062 C 86.199219 15.675781 86.367188 15.757812 86.492188 15.894531 C 86.613281 16.035156 86.675781 16.214844 86.664062 16.398438 L 86.53125 18.625 Z M 91.949219 18.949219 L 88.996094 18.773438 L 89.242188 14.589844 L 92.199219 14.765625 Z M 89.050781 14.132812 C 89.050781 14.132812 89.050781 14.132812 89.046875 14.132812 L 87.679688 14.050781 L 85.488281 10.0625 L 89.054688 10.277344 L 89.015625 10.914062 C 89.015625 10.972656 89.035156 11.03125 89.074219 11.074219 C 89.113281 11.117188 89.167969 11.144531 89.226562 11.148438 L 90.773438 11.242188 C 90.777344 11.242188 90.785156 11.242188 90.789062 11.242188 C 90.789062 11.242188 90.792969 11.242188 90.792969 11.242188 C 90.796875 11.242188 90.800781 11.238281 90.804688 11.238281 C 90.808594 11.238281 90.8125 11.238281 90.816406 11.238281 C 90.816406 11.238281 90.820312 11.238281 90.824219 11.238281 C 90.828125 11.238281 90.832031 11.234375 90.835938 11.234375 C 90.839844 11.234375 90.84375 11.234375 90.847656 11.234375 C 90.851562 11.230469 90.855469 11.230469 90.855469 11.230469 C 90.859375 11.230469 90.863281 11.226562 90.867188 11.226562 C 90.871094 11.226562 90.875 11.222656 90.878906 11.222656 C 90.878906 11.222656 90.882812 11.21875 90.886719 11.21875 C 90.890625 11.21875 90.894531 11.214844 90.898438 11.210938 C 90.898438 11.210938 90.902344 11.210938 90.902344 11.207031 C 90.90625 11.207031 90.910156 11.203125 90.914062 11.199219 C 90.917969 11.199219 90.917969 11.199219 90.921875 11.195312 C 90.925781 11.195312 90.929688 11.191406 90.933594 11.1875 C 90.933594 11.1875 90.9375 11.183594 90.9375 11.183594 C 90.941406 11.179688 90.945312 11.175781 90.949219 11.171875 C 90.949219 11.171875 90.949219 11.171875 90.953125 11.167969 C 90.957031 11.164062 90.957031 11.160156 90.960938 11.15625 C 90.964844 11.15625 90.964844 11.152344 90.964844 11.152344 C 90.96875 11.148438 90.972656 11.144531 90.972656 11.140625 C 90.976562 11.140625 90.976562 11.136719 90.976562 11.136719 C 90.980469 11.132812 90.984375 11.125 90.984375 11.121094 C 90.984375 11.121094 90.988281 11.117188 90.988281 11.117188 C 90.992188 11.113281 90.992188 11.105469 90.992188 11.101562 C 90.996094 11.101562 90.996094 11.097656 90.996094 11.097656 C 91 11.09375 91 11.085938 91 11.082031 C 91 11.082031 91.003906 11.078125 91.003906 11.074219 C 91.003906 11.070312 91.003906 11.066406 91.007812 11.0625 C 91.007812 11.058594 91.007812 11.058594 91.007812 11.054688 C 91.007812 11.046875 91.011719 11.039062 91.011719 11.03125 L 91.046875 10.394531 L 91.40625 10.417969 L 93.683594 14.410156 Z M 89.050781 14.132812 " fill-opacity="1" fill-rule="nonzero"/><g clip-path="url(#d75a34a672)"><g clip-path="url(#f422cdcc35)"><path fill="#e4bddb" d="M 101.714844 4.425781 L 122.167969 4.425781 L 122.167969 24.878906 L 101.714844 24.878906 Z M 101.714844 4.425781 " fill-opacity="1" fill-rule="nonzero"/></g></g><g clip-path="url(#bae48b4f47)"><path fill="#f7ecf5" d="M 119.03125 13.5625 C 119.039062 13.929688 118.847656 14.269531 118.527344 14.453125 C 118.207031 14.632812 117.816406 14.625 117.507812 14.429688 L 116.867188 14.027344 L 115.023438 16.960938 C 114.890625 17.175781 114.636719 17.285156 114.390625 17.238281 L 110.996094 16.597656 L 108.4375 20.125 C 108.238281 20.398438 107.851562 20.460938 107.578125 20.261719 L 105.640625 18.855469 C 105.367188 18.65625 105.304688 18.273438 105.503906 17.996094 L 109.183594 12.929688 C 109.320312 12.738281 109.558594 12.640625 109.792969 12.6875 L 113.046875 13.300781 L 113.800781 12.101562 L 113.175781 11.710938 C 112.898438 11.535156 112.710938 11.234375 112.695312 10.902344 C 112.675781 10.492188 112.910156 10.117188 113.277344 9.949219 L 117.515625 8.027344 C 117.824219 7.886719 118.175781 7.914062 118.457031 8.089844 C 118.742188 8.269531 118.914062 8.574219 118.921875 8.910156 Z M 119.03125 13.5625 " fill-opacity="1" fill-rule="nonzero"/></g><path fill="#ad5590" d="M 118.296875 8.925781 C 118.296875 8.800781 118.230469 8.6875 118.125 8.621094 C 118.019531 8.554688 117.890625 8.546875 117.773438 8.597656 L 113.539062 10.519531 C 113.414062 10.574219 113.332031 10.695312 113.320312 10.832031 C 113.3125 10.96875 113.378906 11.097656 113.492188 11.167969 L 114.664062 11.902344 L 113.351562 13.992188 L 109.808594 13.324219 C 109.730469 13.3125 109.65625 13.339844 109.609375 13.402344 L 106.132812 18.195312 C 106.070312 18.285156 106.089844 18.40625 106.175781 18.472656 L 107.777344 19.632812 C 107.808594 19.65625 107.851562 19.667969 107.890625 19.667969 C 107.902344 19.667969 107.914062 19.667969 107.921875 19.667969 C 107.972656 19.660156 108.019531 19.628906 108.050781 19.589844 L 110.71875 15.910156 L 114.367188 16.597656 C 114.445312 16.613281 114.527344 16.578125 114.570312 16.507812 L 116.667969 13.164062 L 117.839844 13.898438 C 117.953125 13.972656 118.101562 13.972656 118.21875 13.90625 C 118.335938 13.839844 118.410156 13.714844 118.40625 13.578125 Z M 116.710938 12.726562 C 116.667969 12.699219 116.613281 12.6875 116.5625 12.699219 C 116.511719 12.710938 116.46875 12.742188 116.441406 12.789062 L 114.308594 16.183594 L 110.671875 15.496094 C 110.59375 15.484375 110.519531 15.515625 110.472656 15.574219 L 107.847656 19.195312 L 106.570312 18.269531 L 109.855469 13.738281 L 113.410156 14.40625 C 113.488281 14.421875 113.570312 14.386719 113.613281 14.316406 L 115.101562 11.949219 C 115.160156 11.855469 115.132812 11.734375 115.039062 11.675781 L 113.742188 10.859375 L 117.902344 8.972656 L 118.007812 13.539062 Z M 116.710938 12.726562 " fill-opacity="1" fill-rule="nonzero"/><g clip-path="url(#202d4fb030)"><g clip-path="url(#029c4a061a)"><path fill="#e4bddb" d="M 125.796875 4.425781 L 146.25 4.425781 L 146.25 24.878906 L 125.796875 24.878906 Z M 125.796875 4.425781 " fill-opacity="1" fill-rule="nonzero"/></g></g><g clip-path="url(#5d0e3551ff)"><path fill="#f7ecf5" d="M 136.851562 21.21875 L 135.675781 21.277344 C 132.6875 21.429688 130.132812 19.117188 129.980469 16.128906 C 129.875 14.050781 130.972656 12.125 132.738281 11.128906 C 132.730469 11.089844 132.726562 11.046875 132.726562 11.007812 C 132.710938 10.691406 132.796875 10.390625 132.960938 10.144531 L 131.734375 8.011719 C 131.640625 7.84375 131.695312 7.632812 131.863281 7.535156 L 132.304688 7.28125 C 132.824219 6.980469 133.425781 6.941406 133.960938 7.113281 C 134.3125 6.6875 134.835938 6.402344 135.425781 6.375 C 136.019531 6.34375 136.570312 6.574219 136.964844 6.964844 C 137 6.949219 137.035156 6.933594 137.070312 6.921875 C 137.582031 6.726562 138.136719 6.742188 138.632812 6.964844 L 139.09375 7.171875 C 139.269531 7.25 139.347656 7.457031 139.269531 7.632812 L 138.261719 9.882812 C 138.445312 10.113281 138.5625 10.398438 138.578125 10.714844 C 138.578125 10.726562 138.582031 10.738281 138.582031 10.75 C 139.367188 11.066406 140.078125 11.5625 140.644531 12.203125 C 141.460938 13.121094 141.941406 14.300781 142.003906 15.523438 C 142.15625 18.515625 139.84375 21.070312 136.851562 21.21875 Z M 136.851562 21.21875 " fill-opacity="1" fill-rule="nonzero"/></g><path fill="#ad5590" d="M 141.355469 15.558594 C 141.300781 14.480469 140.875 13.445312 140.15625 12.632812 C 139.539062 11.933594 138.722656 11.429688 137.832031 11.1875 C 137.902344 11.0625 137.9375 10.921875 137.929688 10.773438 L 137.929688 10.75 C 137.929688 10.75 137.929688 10.746094 137.929688 10.746094 L 137.929688 10.722656 C 137.914062 10.425781 137.726562 10.171875 137.46875 10.0625 L 138.46875 7.832031 C 138.492188 7.78125 138.492188 7.726562 138.472656 7.671875 C 138.453125 7.621094 138.414062 7.582031 138.367188 7.558594 C 137.820312 7.316406 137.199219 7.449219 136.804688 7.855469 C 136.574219 7.34375 136.050781 6.996094 135.460938 7.023438 C 134.875 7.054688 134.386719 7.453125 134.210938 7.980469 C 133.773438 7.625 133.144531 7.550781 132.628906 7.847656 C 132.53125 7.902344 132.496094 8.03125 132.554688 8.128906 L 133.769531 10.242188 C 133.523438 10.382812 133.359375 10.652344 133.375 10.953125 L 133.378906 11 C 133.386719 11.167969 133.449219 11.324219 133.554688 11.449219 C 131.714844 12.226562 130.53125 14.078125 130.632812 16.09375 C 130.695312 17.363281 131.253906 18.539062 132.203125 19.394531 C 133.089844 20.199219 134.21875 20.632812 135.402344 20.632812 C 135.480469 20.632812 135.5625 20.632812 135.644531 20.628906 L 136.820312 20.570312 C 139.453125 20.4375 141.488281 18.1875 141.355469 15.558594 Z M 136.894531 8.441406 C 136.898438 8.4375 136.898438 8.433594 136.902344 8.425781 C 137.09375 8 137.558594 7.777344 138 7.871094 L 137.042969 10 L 136.574219 10.023438 Z M 137.144531 10.410156 C 137.148438 10.410156 137.148438 10.410156 137.148438 10.410156 C 137.15625 10.410156 137.160156 10.410156 137.164062 10.410156 C 137.355469 10.421875 137.507812 10.578125 137.519531 10.769531 C 137.527344 10.914062 137.449219 11.050781 137.320312 11.121094 C 137.308594 11.125 137.296875 11.136719 137.285156 11.144531 C 137.253906 11.15625 137.21875 11.164062 137.183594 11.164062 L 134.160156 11.316406 C 134.140625 11.316406 134.117188 11.316406 134.097656 11.3125 C 134.089844 11.308594 134.078125 11.304688 134.066406 11.300781 C 133.90625 11.257812 133.796875 11.117188 133.789062 10.957031 C 133.777344 10.765625 133.917969 10.59375 134.105469 10.5625 C 134.109375 10.5625 134.113281 10.5625 134.117188 10.558594 C 134.117188 10.558594 134.121094 10.558594 134.121094 10.558594 Z M 135.480469 7.433594 C 135.996094 7.410156 136.445312 7.792969 136.503906 8.300781 L 136.148438 10.046875 L 135.171875 10.09375 L 134.550781 8.394531 C 134.5625 7.886719 134.96875 7.460938 135.480469 7.433594 Z M 133.023438 8.121094 C 133.449219 7.984375 133.933594 8.15625 134.167969 8.558594 C 134.171875 8.5625 134.175781 8.566406 134.175781 8.570312 L 134.742188 10.117188 L 134.1875 10.144531 Z M 136.800781 20.160156 L 135.625 20.21875 C 134.464844 20.277344 133.347656 19.875 132.476562 19.089844 C 131.609375 18.304688 131.101562 17.234375 131.042969 16.074219 C 130.945312 14.121094 132.164062 12.339844 134.015625 11.714844 C 134.054688 11.722656 134.097656 11.726562 134.140625 11.726562 C 134.15625 11.726562 134.167969 11.726562 134.179688 11.726562 L 137.203125 11.574219 C 137.292969 11.570312 137.378906 11.550781 137.457031 11.519531 C 139.382812 11.914062 140.84375 13.609375 140.945312 15.578125 C 141.066406 17.984375 139.207031 20.039062 136.800781 20.160156 Z M 137.113281 15.589844 C 136.886719 15.398438 136.578125 15.273438 136.1875 15.214844 L 136.101562 13.554688 C 136.28125 13.566406 136.429688 13.609375 136.550781 13.683594 C 136.707031 13.785156 136.832031 13.90625 136.917969 14.042969 C 136.953125 14.09375 137 14.125 137.058594 14.140625 C 137.117188 14.160156 137.171875 14.152344 137.21875 14.117188 C 137.273438 14.085938 137.304688 14.039062 137.308594 13.980469 C 137.316406 13.921875 137.300781 13.863281 137.261719 13.800781 C 137.179688 13.667969 137.070312 13.546875 136.941406 13.441406 C 136.8125 13.335938 136.660156 13.253906 136.488281 13.195312 C 136.363281 13.15625 136.226562 13.132812 136.078125 13.125 L 136.058594 12.746094 C 136.050781 12.632812 135.953125 12.546875 135.839844 12.554688 C 135.726562 12.558594 135.640625 12.65625 135.648438 12.769531 L 135.667969 13.152344 C 135.488281 13.179688 135.320312 13.230469 135.171875 13.300781 C 134.957031 13.40625 134.789062 13.546875 134.671875 13.726562 C 134.554688 13.90625 134.5 14.117188 134.515625 14.359375 C 134.527344 14.59375 134.59375 14.796875 134.714844 14.972656 C 134.835938 15.148438 135.003906 15.289062 135.21875 15.394531 C 135.390625 15.476562 135.582031 15.535156 135.796875 15.566406 L 135.894531 17.421875 C 135.691406 17.414062 135.507812 17.375 135.34375 17.300781 C 135.136719 17.207031 134.992188 17.074219 134.902344 16.90625 C 134.875 16.851562 134.835938 16.8125 134.785156 16.789062 C 134.734375 16.765625 134.679688 16.761719 134.628906 16.78125 C 134.5625 16.800781 134.515625 16.839844 134.492188 16.894531 C 134.46875 16.949219 134.472656 17.007812 134.507812 17.070312 C 134.589844 17.246094 134.710938 17.390625 134.867188 17.515625 C 135.019531 17.636719 135.203125 17.726562 135.410156 17.785156 C 135.570312 17.832031 135.742188 17.855469 135.917969 17.859375 L 135.9375 18.230469 C 135.945312 18.339844 136.035156 18.425781 136.144531 18.425781 C 136.148438 18.425781 136.152344 18.425781 136.15625 18.425781 C 136.269531 18.417969 136.355469 18.320312 136.347656 18.207031 L 136.328125 17.828125 C 136.445312 17.808594 136.558594 17.78125 136.664062 17.742188 C 136.84375 17.675781 137 17.585938 137.132812 17.464844 C 137.261719 17.34375 137.363281 17.203125 137.433594 17.039062 C 137.503906 16.875 137.535156 16.6875 137.523438 16.480469 C 137.503906 16.105469 137.367188 15.808594 137.113281 15.589844 Z M 135.398438 15.027344 C 135.246094 14.945312 135.136719 14.84375 135.070312 14.726562 C 135.007812 14.609375 134.972656 14.484375 134.964844 14.351562 C 134.953125 14.097656 135.035156 13.90625 135.207031 13.769531 C 135.335938 13.671875 135.496094 13.609375 135.691406 13.578125 L 135.773438 15.15625 C 135.625 15.125 135.5 15.085938 135.398438 15.027344 Z M 136.949219 16.988281 C 136.863281 17.117188 136.746094 17.222656 136.59375 17.296875 C 136.503906 17.335938 136.410156 17.367188 136.304688 17.390625 L 136.210938 15.621094 C 136.453125 15.667969 136.640625 15.757812 136.777344 15.886719 C 136.957031 16.054688 137.050781 16.265625 137.058594 16.515625 C 137.070312 16.699219 137.03125 16.855469 136.949219 16.988281 Z M 136.949219 16.988281 " fill-opacity="1" fill-rule="nonzero"/><g clip-path="url(#8858ec6410)"><g clip-path="url(#ff27439297)"><path fill="#e4bddb" d="M 3.75 3.882812 L 24.746094 3.882812 L 24.746094 24.878906 L 3.75 24.878906 Z M 3.75 3.882812 " fill-opacity="1" fill-rule="nonzero"/></g></g><g clip-path="url(#2f53f36a74)"><path fill="#f7ecf5" d="M 18.316406 21.710938 L 11.105469 22.179688 C 11.054688 22.183594 11.003906 22.183594 10.957031 22.183594 C 10.414062 22.183594 9.894531 21.988281 9.484375 21.628906 C 9.035156 21.234375 8.769531 20.6875 8.730469 20.09375 L 8.046875 9.554688 C 8.011719 8.960938 8.207031 8.386719 8.601562 7.9375 C 8.992188 7.488281 9.539062 7.21875 10.132812 7.179688 L 17.347656 6.714844 C 18.578125 6.636719 19.644531 7.570312 19.722656 8.800781 L 20.402344 19.339844 C 20.484375 20.566406 19.546875 21.632812 18.316406 21.710938 Z M 18.316406 21.710938 " fill-opacity="1" fill-rule="nonzero"/></g><g clip-path="url(#1dd0bef005)"><path fill="#ad5590" d="M 19.71875 19.382812 L 19.039062 8.84375 C 18.984375 7.992188 18.246094 7.34375 17.390625 7.398438 L 10.179688 7.863281 C 9.765625 7.890625 9.386719 8.078125 9.113281 8.390625 C 8.839844 8.699219 8.707031 9.097656 8.730469 9.511719 L 9.414062 20.050781 C 9.441406 20.460938 9.625 20.839844 9.9375 21.113281 C 10.222656 21.363281 10.582031 21.5 10.957031 21.5 C 10.992188 21.5 11.027344 21.496094 11.058594 21.496094 L 18.273438 21.027344 C 19.125 20.972656 19.777344 20.234375 19.71875 19.382812 Z M 19.011719 20.21875 C 18.816406 20.445312 18.542969 20.578125 18.246094 20.597656 L 11.03125 21.0625 C 10.734375 21.082031 10.445312 20.984375 10.222656 20.789062 C 10 20.589844 9.863281 20.320312 9.84375 20.019531 L 9.164062 9.484375 C 9.144531 9.1875 9.242188 8.898438 9.4375 8.675781 C 9.636719 8.449219 9.910156 8.316406 10.207031 8.296875 L 17.421875 7.832031 C 17.445312 7.828125 17.46875 7.828125 17.492188 7.828125 C 18.078125 7.828125 18.570312 8.28125 18.605469 8.871094 L 19.289062 19.410156 C 19.308594 19.707031 19.210938 19.996094 19.011719 20.21875 Z M 10.933594 12.613281 C 10.949219 12.613281 10.960938 12.609375 10.976562 12.609375 L 17.214844 12.207031 C 17.378906 12.195312 17.53125 12.121094 17.644531 11.996094 C 17.753906 11.871094 17.808594 11.710938 17.796875 11.542969 L 17.679688 9.730469 C 17.667969 9.566406 17.59375 9.414062 17.46875 9.300781 C 17.34375 9.191406 17.183594 9.136719 17.015625 9.148438 L 10.777344 9.550781 C 10.609375 9.5625 10.457031 9.636719 10.347656 9.761719 C 10.238281 9.886719 10.183594 10.046875 10.195312 10.214844 L 10.3125 12.027344 C 10.332031 12.359375 10.609375 12.613281 10.933594 12.613281 Z M 10.804688 9.984375 L 17.042969 9.582031 C 17.046875 9.578125 17.050781 9.578125 17.058594 9.578125 C 17.101562 9.578125 17.148438 9.597656 17.183594 9.628906 C 17.222656 9.660156 17.246094 9.707031 17.25 9.757812 L 17.367188 11.570312 C 17.367188 11.621094 17.351562 11.671875 17.316406 11.710938 C 17.285156 11.75 17.238281 11.773438 17.1875 11.777344 L 10.945312 12.179688 C 10.839844 12.183594 10.75 12.105469 10.742188 12 L 10.625 10.1875 C 10.617188 10.082031 10.699219 9.992188 10.804688 9.984375 Z M 11.207031 15.324219 C 11.222656 15.324219 11.242188 15.324219 11.257812 15.324219 L 12.03125 15.273438 C 12.433594 15.246094 12.738281 14.898438 12.710938 14.496094 L 12.664062 13.722656 C 12.636719 13.320312 12.289062 13.015625 11.886719 13.039062 L 11.113281 13.089844 C 10.710938 13.117188 10.402344 13.464844 10.429688 13.867188 L 10.480469 14.640625 C 10.503906 15.027344 10.828125 15.324219 11.207031 15.324219 Z M 11.140625 13.523438 L 11.914062 13.472656 C 11.921875 13.472656 11.925781 13.472656 11.933594 13.472656 C 12.089844 13.472656 12.21875 13.59375 12.230469 13.75 L 12.28125 14.523438 C 12.292969 14.6875 12.167969 14.832031 12.003906 14.839844 L 11.226562 14.890625 C 11.0625 14.902344 10.921875 14.777344 10.910156 14.613281 L 10.863281 13.839844 C 10.851562 13.675781 10.976562 13.53125 11.140625 13.523438 Z M 11.375 17.878906 C 11.390625 17.878906 11.40625 17.878906 11.421875 17.875 L 12.195312 17.824219 C 12.390625 17.8125 12.570312 17.726562 12.695312 17.578125 C 12.824219 17.433594 12.890625 17.246094 12.878906 17.050781 L 12.828125 16.273438 C 12.816406 16.082031 12.726562 15.902344 12.582031 15.773438 C 12.433594 15.644531 12.246094 15.582031 12.050781 15.59375 L 11.277344 15.644531 C 11.082031 15.65625 10.902344 15.742188 10.773438 15.890625 C 10.648438 16.039062 10.582031 16.226562 10.59375 16.417969 L 10.644531 17.195312 C 10.671875 17.578125 10.992188 17.878906 11.375 17.878906 Z M 11.101562 16.175781 C 11.152344 16.117188 11.226562 16.082031 11.304688 16.074219 L 12.078125 16.027344 C 12.085938 16.023438 12.09375 16.023438 12.097656 16.023438 C 12.171875 16.023438 12.238281 16.050781 12.292969 16.097656 C 12.355469 16.152344 12.390625 16.222656 12.394531 16.304688 L 12.445312 17.078125 C 12.449219 17.15625 12.425781 17.234375 12.371094 17.292969 C 12.320312 17.351562 12.246094 17.386719 12.167969 17.394531 L 11.394531 17.445312 C 11.230469 17.453125 11.085938 17.328125 11.078125 17.164062 L 11.027344 16.390625 C 11.023438 16.3125 11.046875 16.234375 11.101562 16.175781 Z M 12.992188 18.828125 C 12.964844 18.425781 12.617188 18.121094 12.214844 18.148438 L 11.441406 18.199219 C 11.246094 18.210938 11.070312 18.296875 10.941406 18.445312 C 10.8125 18.589844 10.746094 18.777344 10.761719 18.972656 L 10.808594 19.746094 C 10.824219 19.941406 10.910156 20.121094 11.058594 20.25 C 11.191406 20.367188 11.359375 20.429688 11.539062 20.429688 C 11.554688 20.429688 11.570312 20.429688 11.585938 20.429688 L 12.359375 20.378906 C 12.554688 20.367188 12.734375 20.28125 12.863281 20.132812 C 12.992188 19.984375 13.054688 19.796875 13.042969 19.601562 Z M 12.539062 19.847656 C 12.484375 19.90625 12.414062 19.941406 12.332031 19.949219 L 11.558594 19.996094 C 11.480469 20.003906 11.402344 19.976562 11.34375 19.925781 C 11.285156 19.871094 11.246094 19.796875 11.242188 19.71875 L 11.191406 18.945312 C 11.1875 18.867188 11.214844 18.789062 11.265625 18.730469 C 11.320312 18.671875 11.390625 18.632812 11.46875 18.628906 L 12.246094 18.578125 C 12.25 18.578125 12.257812 18.578125 12.265625 18.578125 C 12.417969 18.578125 12.550781 18.699219 12.5625 18.855469 L 12.609375 19.632812 C 12.617188 19.710938 12.589844 19.785156 12.539062 19.847656 Z M 14.042969 17.703125 C 14.058594 17.703125 14.074219 17.703125 14.089844 17.703125 L 14.867188 17.652344 C 15.058594 17.640625 15.238281 17.554688 15.367188 17.40625 C 15.496094 17.257812 15.558594 17.070312 15.546875 16.878906 L 15.496094 16.101562 C 15.484375 15.90625 15.398438 15.730469 15.25 15.601562 C 15.105469 15.472656 14.914062 15.410156 14.722656 15.421875 L 13.945312 15.472656 C 13.753906 15.484375 13.574219 15.570312 13.445312 15.71875 C 13.316406 15.863281 13.253906 16.050781 13.265625 16.246094 L 13.316406 17.023438 C 13.339844 17.40625 13.664062 17.703125 14.042969 17.703125 Z M 13.769531 16.003906 C 13.824219 15.945312 13.894531 15.90625 13.976562 15.902344 L 14.75 15.851562 C 14.757812 15.851562 14.761719 15.851562 14.769531 15.851562 C 14.839844 15.851562 14.910156 15.878906 14.964844 15.925781 C 15.023438 15.980469 15.058594 16.050781 15.066406 16.128906 L 15.117188 16.90625 C 15.121094 16.984375 15.09375 17.0625 15.042969 17.121094 C 14.988281 17.179688 14.917969 17.214844 14.835938 17.222656 L 14.0625 17.269531 C 13.898438 17.28125 13.757812 17.15625 13.746094 16.992188 L 13.695312 16.21875 C 13.691406 16.140625 13.71875 16.0625 13.769531 16.003906 Z M 15.664062 18.65625 C 15.636719 18.253906 15.289062 17.949219 14.886719 17.976562 L 14.113281 18.023438 C 13.917969 18.039062 13.738281 18.125 13.609375 18.273438 C 13.480469 18.417969 13.417969 18.605469 13.429688 18.800781 L 13.480469 19.574219 C 13.492188 19.769531 13.582031 19.949219 13.726562 20.078125 C 13.863281 20.195312 14.03125 20.257812 14.207031 20.257812 C 14.222656 20.257812 14.242188 20.257812 14.257812 20.257812 L 15.03125 20.207031 C 15.226562 20.195312 15.402344 20.105469 15.53125 19.960938 C 15.660156 19.8125 15.726562 19.625 15.710938 19.429688 Z M 15.207031 19.675781 C 15.15625 19.734375 15.082031 19.769531 15.003906 19.773438 L 14.230469 19.824219 C 14.148438 19.828125 14.074219 19.804688 14.011719 19.75 C 13.953125 19.699219 13.917969 19.625 13.914062 19.546875 L 13.863281 18.773438 C 13.859375 18.691406 13.882812 18.617188 13.9375 18.558594 C 13.988281 18.496094 14.0625 18.460938 14.140625 18.457031 L 14.914062 18.40625 C 14.921875 18.40625 14.929688 18.40625 14.933594 18.40625 C 15.089844 18.40625 15.222656 18.527344 15.230469 18.683594 L 15.28125 19.457031 C 15.285156 19.539062 15.261719 19.613281 15.207031 19.675781 Z M 13.355469 14.972656 C 13.488281 15.089844 13.65625 15.152344 13.835938 15.152344 C 13.851562 15.152344 13.867188 15.152344 13.882812 15.152344 L 14.65625 15.101562 C 14.851562 15.089844 15.03125 15.003906 15.160156 14.855469 C 15.289062 14.710938 15.351562 14.519531 15.339844 14.328125 L 15.289062 13.550781 C 15.277344 13.359375 15.1875 13.179688 15.042969 13.050781 C 14.894531 12.921875 14.707031 12.859375 14.511719 12.871094 L 13.738281 12.921875 C 13.335938 12.945312 13.03125 13.292969 13.058594 13.695312 L 13.105469 14.472656 C 13.121094 14.664062 13.207031 14.84375 13.355469 14.972656 Z M 13.765625 13.351562 L 14.542969 13.300781 C 14.546875 13.300781 14.554688 13.300781 14.558594 13.300781 C 14.632812 13.300781 14.703125 13.328125 14.757812 13.375 C 14.816406 13.429688 14.851562 13.5 14.855469 13.578125 L 14.90625 14.355469 C 14.914062 14.433594 14.886719 14.511719 14.832031 14.570312 C 14.78125 14.628906 14.707031 14.664062 14.628906 14.671875 L 13.855469 14.71875 C 13.777344 14.726562 13.699219 14.699219 13.640625 14.648438 C 13.578125 14.59375 13.542969 14.523438 13.539062 14.441406 L 13.488281 13.667969 C 13.476562 13.503906 13.601562 13.363281 13.765625 13.351562 Z M 15.980469 14.800781 C 16.117188 14.921875 16.285156 14.984375 16.460938 14.984375 C 16.476562 14.984375 16.492188 14.984375 16.507812 14.984375 L 17.285156 14.933594 C 17.6875 14.90625 17.992188 14.558594 17.964844 14.15625 L 17.914062 13.382812 C 17.902344 13.1875 17.816406 13.007812 17.667969 12.878906 C 17.523438 12.75 17.335938 12.6875 17.140625 12.699219 L 16.363281 12.75 C 15.964844 12.777344 15.65625 13.125 15.683594 13.527344 L 15.734375 14.300781 C 15.746094 14.496094 15.835938 14.671875 15.980469 14.800781 Z M 16.394531 13.183594 L 17.167969 13.132812 C 17.175781 13.132812 17.179688 13.132812 17.1875 13.132812 C 17.261719 13.132812 17.328125 13.15625 17.382812 13.207031 C 17.445312 13.257812 17.480469 13.332031 17.484375 13.410156 L 17.535156 14.183594 C 17.542969 14.347656 17.421875 14.488281 17.257812 14.5 L 16.480469 14.550781 C 16.402344 14.554688 16.324219 14.53125 16.265625 14.476562 C 16.207031 14.425781 16.171875 14.351562 16.164062 14.273438 L 16.117188 13.5 C 16.105469 13.335938 16.230469 13.191406 16.394531 13.183594 Z M 18.082031 15.9375 C 18.070312 15.742188 17.980469 15.5625 17.835938 15.433594 C 17.6875 15.304688 17.5 15.242188 17.304688 15.253906 L 16.53125 15.304688 C 16.335938 15.316406 16.15625 15.40625 16.027344 15.550781 C 15.902344 15.699219 15.835938 15.886719 15.847656 16.082031 L 16.0625 19.40625 C 16.078125 19.601562 16.164062 19.78125 16.3125 19.910156 C 16.445312 20.027344 16.613281 20.089844 16.792969 20.089844 C 16.808594 20.089844 16.824219 20.089844 16.839844 20.089844 L 17.613281 20.039062 C 17.808594 20.027344 17.988281 19.9375 18.117188 19.792969 C 18.246094 19.644531 18.308594 19.457031 18.296875 19.261719 Z M 17.792969 19.507812 C 17.738281 19.566406 17.667969 19.601562 17.585938 19.609375 L 16.8125 19.65625 C 16.734375 19.664062 16.65625 19.636719 16.597656 19.585938 C 16.535156 19.53125 16.5 19.460938 16.496094 19.378906 L 16.28125 16.050781 C 16.269531 15.886719 16.394531 15.746094 16.558594 15.734375 L 17.332031 15.6875 C 17.339844 15.683594 17.347656 15.683594 17.351562 15.683594 C 17.425781 15.683594 17.492188 15.710938 17.546875 15.757812 C 17.609375 15.8125 17.644531 15.882812 17.648438 15.964844 L 17.863281 19.289062 C 17.871094 19.371094 17.84375 19.449219 17.792969 19.507812 Z M 13.683594 8.730469 C 13.675781 8.613281 13.765625 8.511719 13.886719 8.503906 L 17.367188 8.277344 C 17.488281 8.269531 17.589844 8.359375 17.597656 8.480469 C 17.605469 8.597656 17.515625 8.699219 17.398438 8.707031 L 13.914062 8.933594 C 13.910156 8.933594 13.902344 8.933594 13.898438 8.933594 C 13.785156 8.933594 13.691406 8.847656 13.683594 8.730469 Z M 13.683594 8.730469 " fill-opacity="1" fill-rule="nonzero"/></g><g clip-path="url(#5d7601714f)"><g clip-path="url(#e54ee051ee)"><path fill="#e4bddb" d="M 28.375 3.882812 L 49.375 3.882812 L 49.375 24.878906 L 28.375 24.878906 Z M 28.375 3.882812 " fill-opacity="1" fill-rule="nonzero"/></g></g><g clip-path="url(#c88dc0bb9a)"><g clip-path="url(#3533520e8e)"><g clip-path="url(#e9308850e6)"><path fill="#f7ecf5" d="M 45.105469 14.789062 C 44.371094 16.0625 43.136719 17.359375 41.625 18.4375 C 40.304688 19.378906 38.894531 20.070312 37.59375 20.414062 C 37.40625 20.464844 37.226562 20.503906 37.042969 20.539062 C 35.355469 20.867188 34.050781 20.523438 33.375 19.574219 L 32.378906 18.179688 C 31.703125 17.230469 31.800781 15.886719 32.660156 14.394531 C 33.390625 13.121094 34.628906 11.824219 36.136719 10.746094 C 37.648438 9.667969 39.273438 8.921875 40.71875 8.640625 C 42.40625 8.316406 43.710938 8.660156 44.390625 9.609375 L 45.382812 11.003906 C 46.058594 11.953125 45.960938 13.296875 45.105469 14.789062 Z M 45.105469 14.789062 " fill-opacity="1" fill-rule="nonzero"/></g></g></g><g clip-path="url(#2fe98570ef)"><g clip-path="url(#d553aaa990)"><g clip-path="url(#56757e3366)"><path fill="#ad5590" d="M 44.820312 11.402344 L 43.828125 10.011719 C 43.316406 9.292969 42.257812 9.050781 40.847656 9.320312 C 39.5 9.582031 37.96875 10.289062 36.539062 11.308594 C 35.105469 12.332031 33.941406 13.546875 33.257812 14.738281 C 32.542969 15.984375 32.429688 17.0625 32.941406 17.777344 L 33.9375 19.171875 C 34.449219 19.886719 35.503906 20.132812 36.914062 19.863281 C 37.078125 19.828125 37.25 19.792969 37.421875 19.746094 C 38.636719 19.421875 39.96875 18.769531 41.222656 17.875 C 42.65625 16.851562 43.820312 15.636719 44.503906 14.445312 C 45.21875 13.199219 45.332031 12.121094 44.820312 11.402344 Z M 33.636719 14.957031 C 34.289062 13.820312 35.410156 12.648438 36.792969 11.664062 C 38.003906 10.796875 39.285156 10.167969 40.453125 9.859375 C 40.613281 9.816406 40.773438 9.78125 40.933594 9.75 C 42.144531 9.515625 43.070312 9.703125 43.472656 10.265625 C 43.871094 10.824219 43.75 11.761719 43.132812 12.832031 C 42.480469 13.96875 41.359375 15.140625 39.976562 16.125 C 38.59375 17.113281 37.125 17.792969 35.835938 18.039062 C 34.625 18.273438 33.699219 18.085938 33.296875 17.523438 C 32.898438 16.964844 33.019531 16.027344 33.636719 14.957031 Z M 42.609375 16.144531 L 41.875 15.109375 C 42.222656 14.765625 42.542969 14.414062 42.824219 14.054688 L 43.554688 15.078125 C 43.277344 15.4375 42.960938 15.792969 42.609375 16.144531 Z M 41.148438 17.390625 L 40.40625 16.351562 C 40.8125 16.054688 41.199219 15.738281 41.554688 15.414062 L 42.292969 16.449219 C 41.9375 16.773438 41.554688 17.089844 41.148438 17.390625 Z M 39.5 18.433594 L 38.761719 17.398438 C 39.195312 17.164062 39.628906 16.898438 40.050781 16.605469 L 40.792969 17.644531 C 40.367188 17.9375 39.933594 18.203125 39.5 18.433594 Z M 37.792969 19.179688 L 37.0625 18.15625 C 37.492188 18.007812 37.933594 17.820312 38.371094 17.601562 L 39.109375 18.636719 C 38.664062 18.855469 38.222656 19.035156 37.792969 19.179688 Z M 34.292969 18.917969 L 33.964844 18.460938 C 34.238281 18.539062 34.546875 18.578125 34.886719 18.578125 C 34.890625 18.605469 34.902344 18.628906 34.917969 18.652344 L 35.535156 19.515625 C 34.964844 19.457031 34.53125 19.257812 34.292969 18.917969 Z M 36.832031 19.433594 C 36.566406 19.484375 36.3125 19.515625 36.078125 19.527344 L 35.382812 18.550781 C 35.554688 18.53125 35.734375 18.503906 35.917969 18.46875 C 36.085938 18.4375 36.253906 18.398438 36.425781 18.351562 C 36.496094 18.335938 36.5625 18.316406 36.632812 18.292969 C 36.636719 18.308594 36.644531 18.320312 36.652344 18.332031 L 37.351562 19.3125 C 37.175781 19.359375 37 19.398438 36.832031 19.433594 Z M 44.128906 14.226562 C 44.035156 14.386719 43.933594 14.546875 43.824219 14.707031 L 43.121094 13.71875 C 43.113281 13.710938 43.105469 13.699219 43.097656 13.691406 C 43.25 13.476562 43.390625 13.265625 43.511719 13.050781 C 43.601562 12.898438 43.679688 12.746094 43.75 12.601562 L 44.445312 13.578125 C 44.359375 13.785156 44.253906 14.003906 44.128906 14.226562 Z M 44.617188 13.066406 L 43.984375 12.183594 C 43.972656 12.164062 43.957031 12.148438 43.941406 12.136719 C 44.058594 11.804688 44.125 11.492188 44.136719 11.199219 L 44.464844 11.65625 C 44.710938 12.003906 44.757812 12.492188 44.617188 13.066406 Z M 36.335938 17.492188 C 36.40625 17.472656 36.476562 17.457031 36.546875 17.4375 C 37.558594 17.167969 38.695312 16.605469 39.773438 15.839844 C 40.921875 15.015625 41.875 14.054688 42.449219 13.125 C 43.058594 12.144531 43.179688 11.300781 42.789062 10.75 C 42.398438 10.203125 41.5625 10.042969 40.433594 10.300781 C 39.371094 10.542969 38.148438 11.128906 36.996094 11.953125 C 35.84375 12.773438 34.894531 13.738281 34.316406 14.664062 C 33.707031 15.648438 33.589844 16.492188 33.980469 17.039062 C 34.371094 17.585938 35.207031 17.746094 36.335938 17.492188 Z M 34.6875 14.894531 C 35.234375 14.015625 36.144531 13.097656 37.25 12.304688 C 38.285156 11.566406 39.371094 11.027344 40.332031 10.773438 C 40.398438 10.757812 40.464844 10.738281 40.53125 10.726562 C 41.460938 10.511719 42.15625 10.613281 42.433594 11.003906 C 42.980469 11.773438 41.941406 13.753906 39.519531 15.484375 C 38.410156 16.273438 37.246094 16.835938 36.238281 17.066406 C 35.304688 17.277344 34.613281 17.175781 34.335938 16.785156 C 34.054688 16.394531 34.183594 15.707031 34.6875 14.894531 Z M 34.6875 14.894531 " fill-opacity="1" fill-rule="nonzero"/></g></g></g><g clip-path="url(#8820472309)"><g clip-path="url(#b90c3b73c8)"><path fill="#e4bddb" d="M 53.003906 4.152344 L 74 4.152344 L 74 25.152344 L 53.003906 25.152344 Z M 53.003906 4.152344 " fill-opacity="1" fill-rule="nonzero"/></g></g><g clip-path="url(#9046396e59)"><g clip-path="url(#05c4154174)"><g clip-path="url(#48ad34c325)"><path fill="#f7ecf5" d="M 69.683594 10.785156 L 67.894531 20.90625 C 67.820312 21.3125 67.59375 21.667969 67.253906 21.90625 C 66.9375 22.128906 66.554688 22.222656 66.171875 22.175781 C 66.148438 22.171875 66.121094 22.167969 66.09375 22.164062 L 58.289062 20.78125 C 57.882812 20.707031 57.527344 20.480469 57.289062 20.140625 C 57.050781 19.800781 56.960938 19.390625 57.035156 18.984375 L 58.824219 8.863281 C 58.972656 8.019531 59.777344 7.457031 60.621094 7.605469 L 61.664062 7.789062 C 61.695312 7.761719 61.730469 7.738281 61.765625 7.714844 C 62.070312 7.5 62.4375 7.417969 62.804688 7.484375 L 62.894531 7.5 C 63.078125 6.574219 63.972656 5.957031 64.910156 6.121094 C 65.367188 6.203125 65.769531 6.457031 66.035156 6.839844 C 66.296875 7.210938 66.398438 7.660156 66.332031 8.109375 L 66.421875 8.125 C 66.785156 8.1875 67.105469 8.390625 67.316406 8.695312 C 67.339844 8.730469 67.363281 8.765625 67.382812 8.800781 L 68.425781 8.988281 C 69.269531 9.136719 69.832031 9.941406 69.683594 10.785156 Z M 69.683594 10.785156 " fill-opacity="1" fill-rule="nonzero"/></g></g></g><g clip-path="url(#dc67e6cb1a)"><g clip-path="url(#eaac0fcfa1)"><g clip-path="url(#5d0e304089)"><path fill="#ad5590" d="M 68.308594 9.652344 L 66.882812 9.402344 C 66.84375 9.101562 66.617188 8.847656 66.300781 8.792969 L 65.335938 8.621094 C 65.496094 8.46875 65.613281 8.265625 65.65625 8.027344 C 65.707031 7.746094 65.644531 7.464844 65.480469 7.230469 C 65.316406 6.996094 65.070312 6.839844 64.789062 6.789062 C 64.210938 6.6875 63.65625 7.074219 63.550781 7.65625 C 63.511719 7.890625 63.550781 8.125 63.652344 8.324219 L 62.683594 8.152344 C 62.496094 8.117188 62.308594 8.160156 62.152344 8.269531 C 62.058594 8.335938 61.980469 8.421875 61.929688 8.523438 L 60.503906 8.273438 C 60.03125 8.1875 59.574219 8.507812 59.492188 8.980469 L 57.703125 19.101562 C 57.660156 19.332031 57.710938 19.5625 57.84375 19.753906 C 57.980469 19.945312 58.179688 20.074219 58.410156 20.113281 L 66.214844 21.496094 C 66.226562 21.496094 66.242188 21.5 66.257812 21.5 C 66.472656 21.527344 66.6875 21.476562 66.867188 21.351562 C 67.058594 21.214844 67.183594 21.015625 67.226562 20.785156 L 69.015625 10.667969 C 69.101562 10.191406 68.78125 9.738281 68.308594 9.652344 Z M 62.324219 10.191406 L 64.746094 10.617188 L 67.214844 11.054688 L 65.683594 19.707031 L 59.519531 18.617188 L 61.050781 9.964844 Z M 63.976562 7.730469 C 64.035156 7.394531 64.347656 7.164062 64.683594 7.207031 C 64.695312 7.207031 64.707031 7.210938 64.714844 7.210938 C 64.882812 7.242188 65.03125 7.335938 65.128906 7.476562 C 65.226562 7.613281 65.265625 7.785156 65.234375 7.953125 C 65.171875 8.300781 64.839844 8.53125 64.492188 8.472656 C 64.144531 8.410156 63.914062 8.078125 63.976562 7.730469 Z M 62.398438 8.621094 C 62.460938 8.578125 62.535156 8.5625 62.609375 8.574219 L 66.226562 9.214844 C 66.378906 9.242188 66.484375 9.386719 66.457031 9.542969 L 66.34375 10.179688 C 66.316406 10.332031 66.171875 10.433594 66.015625 10.410156 L 62.398438 9.769531 C 62.246094 9.742188 62.140625 9.59375 62.167969 9.441406 L 62.28125 8.804688 C 62.296875 8.730469 62.335938 8.664062 62.398438 8.621094 Z M 66.804688 20.710938 C 66.78125 20.828125 66.71875 20.929688 66.621094 21 C 66.523438 21.066406 66.40625 21.09375 66.289062 21.070312 L 58.484375 19.691406 C 58.367188 19.671875 58.265625 19.605469 58.195312 19.507812 C 58.128906 19.410156 58.101562 19.292969 58.125 19.175781 L 59.914062 9.054688 C 59.957031 8.8125 60.1875 8.652344 60.429688 8.695312 L 61.824219 8.941406 L 61.746094 9.367188 C 61.730469 9.464844 61.734375 9.5625 61.757812 9.652344 L 60.914062 9.503906 C 60.855469 9.496094 60.800781 9.507812 60.753906 9.539062 C 60.707031 9.574219 60.675781 9.621094 60.664062 9.679688 L 59.058594 18.753906 C 59.046875 18.808594 59.0625 18.867188 59.09375 18.914062 C 59.125 18.960938 59.175781 18.992188 59.234375 19 L 65.820312 20.167969 C 65.824219 20.167969 65.828125 20.167969 65.832031 20.167969 C 65.945312 20.183594 66.050781 20.105469 66.070312 19.996094 L 67.675781 10.917969 C 67.695312 10.800781 67.617188 10.691406 67.503906 10.671875 L 66.660156 10.519531 C 66.710938 10.441406 66.75 10.351562 66.765625 10.253906 L 66.839844 9.828125 L 68.234375 10.074219 C 68.476562 10.117188 68.636719 10.347656 68.59375 10.589844 Z M 61.328125 12.957031 L 62.785156 13.214844 C 62.789062 13.214844 62.789062 13.214844 62.792969 13.214844 C 62.90625 13.230469 63.011719 13.15625 63.03125 13.042969 L 63.289062 11.585938 C 63.308594 11.472656 63.234375 11.359375 63.117188 11.339844 L 61.664062 11.082031 C 61.546875 11.0625 61.433594 11.136719 61.414062 11.253906 L 61.15625 12.710938 C 61.136719 12.824219 61.214844 12.9375 61.328125 12.957031 Z M 61.796875 11.539062 L 62.832031 11.722656 L 62.648438 12.753906 L 61.617188 12.574219 Z M 60.902344 15.367188 L 62.355469 15.625 C 62.359375 15.625 62.363281 15.625 62.367188 15.625 C 62.480469 15.640625 62.585938 15.5625 62.605469 15.453125 L 62.863281 13.996094 C 62.882812 13.878906 62.804688 13.769531 62.691406 13.75 L 61.234375 13.492188 C 61.179688 13.480469 61.121094 13.496094 61.074219 13.527344 C 61.027344 13.558594 60.996094 13.609375 60.988281 13.664062 L 60.730469 15.121094 C 60.71875 15.175781 60.734375 15.234375 60.765625 15.277344 C 60.796875 15.324219 60.847656 15.359375 60.902344 15.367188 Z M 61.371094 13.949219 L 62.402344 14.132812 L 62.222656 15.164062 L 61.1875 14.984375 Z M 60.476562 17.777344 L 61.929688 18.035156 C 61.933594 18.035156 61.9375 18.035156 61.941406 18.039062 C 62.054688 18.050781 62.160156 17.976562 62.179688 17.863281 L 62.4375 16.40625 C 62.445312 16.351562 62.433594 16.292969 62.402344 16.246094 C 62.367188 16.203125 62.320312 16.167969 62.261719 16.160156 L 60.808594 15.902344 C 60.691406 15.882812 60.582031 15.960938 60.558594 16.074219 L 60.304688 17.53125 C 60.292969 17.585938 60.304688 17.644531 60.339844 17.691406 C 60.371094 17.734375 60.421875 17.769531 60.476562 17.777344 Z M 60.945312 16.359375 L 61.976562 16.542969 L 61.792969 17.578125 L 60.761719 17.394531 Z M 63.582031 12.390625 C 63.601562 12.273438 63.714844 12.195312 63.832031 12.214844 L 66.128906 12.621094 C 66.246094 12.644531 66.324219 12.753906 66.300781 12.871094 C 66.28125 12.984375 66.175781 13.058594 66.066406 13.046875 C 66.0625 13.046875 66.058594 13.042969 66.054688 13.042969 L 63.757812 12.636719 C 63.640625 12.617188 63.5625 12.503906 63.582031 12.390625 Z M 63.15625 14.800781 C 63.175781 14.683594 63.289062 14.605469 63.40625 14.625 L 65.703125 15.03125 C 65.820312 15.054688 65.898438 15.164062 65.875 15.28125 C 65.855469 15.394531 65.75 15.46875 65.636719 15.457031 C 65.636719 15.457031 65.632812 15.453125 65.628906 15.453125 L 63.328125 15.046875 C 63.214844 15.027344 63.136719 14.914062 63.15625 14.800781 Z M 62.730469 17.210938 C 62.75 17.09375 62.863281 17.015625 62.976562 17.035156 L 65.277344 17.441406 C 65.390625 17.464844 65.46875 17.574219 65.449219 17.691406 C 65.429688 17.804688 65.324219 17.878906 65.210938 17.867188 C 65.207031 17.867188 65.203125 17.863281 65.199219 17.863281 L 62.902344 17.457031 C 62.785156 17.4375 62.710938 17.324219 62.730469 17.210938 Z M 62.730469 17.210938 " fill-opacity="1" fill-rule="nonzero"/></g></g></g></svg>