<svg xmlns="http://www.w3.org/2000/svg" xmlns:xlink="http://www.w3.org/1999/xlink" width="1080" zoomAndPan="magnify" viewBox="0 0 810 809.999993" height="1080" preserveAspectRatio="xMidYMid meet" version="1.0"><defs><clipPath id="16c191a2ce"><path d="M 434 289 L 792.347656 289 L 792.347656 735 L 434 735 Z M 434 289 " clip-rule="nonzero"/></clipPath><clipPath id="eb8588b66b"><path d="M 148 753 L 181 753 L 181 790.601562 L 148 790.601562 Z M 148 753 " clip-rule="nonzero"/></clipPath><clipPath id="865c64bbe7"><path d="M 31.847656 755 L 130 755 L 130 790.601562 L 31.847656 790.601562 Z M 31.847656 755 " clip-rule="nonzero"/></clipPath><clipPath id="ed056d07a5"><path d="M 31.847656 705 L 128 705 L 128 755 L 31.847656 755 Z M 31.847656 705 " clip-rule="nonzero"/></clipPath><clipPath id="456b9b44c5"><path d="M 31.847656 692 L 121 692 L 121 718 L 31.847656 718 Z M 31.847656 692 " clip-rule="nonzero"/></clipPath><clipPath id="15d9f34c01"><path d="M 120 701 L 153 701 L 153 790.601562 L 120 790.601562 Z M 120 701 " clip-rule="nonzero"/></clipPath><clipPath id="bacc646a1a"><path d="M 172 494 L 652 494 L 652 790.601562 L 172 790.601562 Z M 172 494 " clip-rule="nonzero"/></clipPath><clipPath id="82d881e374"><path d="M 220 30.101562 L 604 30.101562 L 604 365 L 220 365 Z M 220 30.101562 " clip-rule="nonzero"/></clipPath><clipPath id="7205faa09d"><path d="M 31.847656 741 L 121 741 L 121 767 L 31.847656 767 Z M 31.847656 741 " clip-rule="nonzero"/></clipPath><clipPath id="261fd6feac"><path d="M 560 693 L 610 693 L 610 790.601562 L 560 790.601562 Z M 560 693 " clip-rule="nonzero"/></clipPath><clipPath id="c572c1b9f3"><path d="M 206 693 L 264 693 L 264 790.601562 L 206 790.601562 Z M 206 693 " clip-rule="nonzero"/></clipPath><clipPath id="0df0a85157"><path d="M 22.847656 18.261719 L 792 18.261719 L 792 790.011719 L 22.847656 790.011719 Z M 22.847656 18.261719 " clip-rule="nonzero"/></clipPath><clipPath id="4e70b13eb2"><path d="M 51.40625 18.261719 L 763.433594 18.261719 C 771.007812 18.261719 778.269531 21.269531 783.628906 26.625 C 788.984375 31.980469 791.992188 39.246094 791.992188 46.820312 L 791.992188 761.683594 C 791.992188 769.257812 788.984375 776.523438 783.628906 781.878906 C 778.269531 787.234375 771.007812 790.246094 763.433594 790.246094 L 51.40625 790.246094 C 43.832031 790.246094 36.570312 787.234375 31.214844 781.878906 C 25.859375 776.523438 22.847656 769.257812 22.847656 761.683594 L 22.847656 46.820312 C 22.847656 39.246094 25.859375 31.980469 31.214844 26.625 C 36.570312 21.269531 43.832031 18.261719 51.40625 18.261719 Z M 51.40625 18.261719 " clip-rule="nonzero"/></clipPath></defs><rect x="-81" width="972" fill="#ffffff" y="-80.999999" height="971.999992" fill-opacity="1"/><rect x="-81" width="972" fill="#ffffff" y="-80.999999" height="971.999992" fill-opacity="1"/><g clip-path="url(#16c191a2ce)"><path fill="#c3ddda" d="M 588.4375 289.714844 L 448.910156 441.015625 C 432.511719 461.03125 426.953125 479.007812 448.789062 491.828125 C 476.3125 613.0625 533.902344 701.191406 641.578125 734.175781 L 792.347656 734.175781 L 792.347656 289.714844 Z M 588.4375 289.714844 " fill-opacity="1" fill-rule="nonzero"/></g><path fill="#ef9d26" d="M 245.953125 460.027344 C 241.445312 460.027344 237.027344 460.367188 232.703125 461.027344 C 209.246094 464.613281 194.984375 418.539062 178.867188 437.722656 C 142.757812 480.703125 159.367188 526.589844 158.890625 544.832031 C 158.878906 545.617188 158.863281 546.398438 158.863281 547.179688 C 158.863281 547.976562 158.863281 548.699219 158.921875 549.496094 C 165.730469 552.960938 172.015625 557.316406 177.644531 562.375 L 206.46875 627.125 C 206.46875 653.511719 194.742188 677.15625 176.21875 693.148438 C 178.785156 703.488281 184.648438 703.363281 193.699219 693.148438 L 326.417969 513.753906 C 313.355469 482.230469 282.257812 460.027344 245.953125 460.027344 Z M 245.953125 460.027344 " fill-opacity="1" fill-rule="nonzero"/><path fill="#ffc05a" d="M 245.953125 484.007812 C 211.117188 484.007812 182.84375 512.28125 182.84375 547.179688 C 182.84375 551.273438 183.226562 555.277344 183.976562 559.140625 C 185.097656 564.996094 187.042969 570.546875 189.679688 575.714844 C 189.695312 575.730469 189.695312 575.746094 189.710938 575.761719 C 192.027344 578.902344 194.113281 582.199219 195.980469 585.632812 C 195.96875 585.664062 195.980469 585.679688 195.996094 585.679688 C 196.011719 585.695312 196.011719 585.695312 196.027344 585.695312 C 204.738281 597.042969 217.234375 605.320312 231.644531 608.632812 C 236.277344 601.074219 241.058594 593.992188 245.953125 587.320312 L 251.363281 580.175781 C 256.730469 573.292969 262.21875 566.882812 267.785156 560.933594 C 280.359375 547.472656 293.253906 536.355469 305.902344 527.171875 C 297.546875 502.070312 273.886719 484.007812 245.953125 484.007812 Z M 245.953125 484.007812 " fill-opacity="1" fill-rule="nonzero"/><path fill="#ae2c36" d="M 647.636719 662.3125 L 616.925781 662.3125 C 613.539062 662.3125 610.792969 659.566406 610.792969 656.179688 C 610.792969 652.792969 613.539062 650.046875 616.925781 650.046875 L 647.636719 650.046875 C 651.023438 650.046875 653.769531 652.792969 653.769531 656.179688 C 653.769531 659.566406 651.023438 662.3125 647.636719 662.3125 Z M 647.636719 662.3125 " fill-opacity="1" fill-rule="nonzero"/><path fill="#f9eac7" d="M 267.785156 567.089844 C 264.433594 567.089844 261.710938 564.425781 261.652344 561.089844 C 261.429688 557.378906 252.421875 554.414062 245.171875 552.03125 L 244.027344 551.652344 C 234.394531 548.539062 219.78125 543.8125 219.398438 530.675781 C 219.394531 530.613281 219.394531 530.554688 219.394531 530.496094 C 219.394531 524.191406 224.15625 507.8125 245.914062 507.679688 L 246.132812 507.679688 C 262.808594 507.679688 269.441406 524.652344 269.714844 525.375 C 270.917969 528.542969 269.324219 532.082031 266.15625 533.285156 C 262.992188 534.488281 259.449219 532.894531 258.246094 529.726562 C 258.101562 529.359375 254.300781 519.945312 246.132812 519.945312 L 245.949219 519.945312 C 233.183594 520.023438 231.773438 527.832031 231.664062 530.445312 C 231.945312 534.519531 239.800781 537.394531 247.835938 539.992188 L 249.003906 540.375 C 260.476562 544.148438 273.480469 548.429688 273.910156 560.714844 C 273.914062 560.789062 273.914062 560.859375 273.914062 560.929688 C 273.917969 564.320312 271.171875 567.089844 267.785156 567.089844 Z M 267.785156 567.089844 " fill-opacity="1" fill-rule="nonzero"/><path fill="#f9eac7" d="M 246.6875 586.675781 C 246.382812 586.675781 245.894531 586.675781 245.289062 586.59375 C 230.253906 585.824219 223.46875 572.253906 221.976562 565.117188 C 221.285156 561.800781 223.410156 558.550781 226.726562 557.859375 C 230.035156 557.164062 233.269531 559.277344 233.976562 562.574219 C 234.097656 563.117188 236.671875 574.035156 246.15625 574.355469 C 246.375 574.359375 246.59375 574.378906 246.808594 574.410156 C 248.136719 574.402344 249.269531 574.308594 250.34375 574.128906 C 250.679688 574.070312 251.019531 574.042969 251.363281 574.042969 C 254.75 574.042969 257.519531 576.789062 257.519531 580.175781 C 257.519531 583.335938 255.152344 585.933594 252.085938 586.273438 C 250.371094 586.542969 248.601562 586.675781 246.6875 586.675781 Z M 247.4375 574.53125 C 247.4375 574.53125 247.441406 574.53125 247.441406 574.535156 C 247.441406 574.53125 247.4375 574.53125 247.4375 574.53125 Z M 247.4375 574.53125 " fill-opacity="1" fill-rule="nonzero"/><path fill="#f9eac7" d="M 245.953125 586.617188 C 242.5625 586.617188 239.816406 583.871094 239.816406 580.480469 L 239.816406 503.941406 C 239.816406 500.554688 242.5625 497.808594 245.953125 497.808594 C 249.339844 497.808594 252.085938 500.554688 252.085938 503.941406 L 252.085938 580.480469 C 252.085938 583.871094 249.339844 586.617188 245.953125 586.617188 Z M 245.953125 586.617188 " fill-opacity="1" fill-rule="nonzero"/><path fill="#216849" d="M 152.300781 717.496094 C 164.1875 707.570312 175.605469 708.625 186.691406 717.496094 C 190.851562 726.839844 192.109375 735.710938 181.003906 741.84375 L 180.988281 741.84375 C 171.714844 752.253906 162.117188 750.976562 152.300781 741.84375 C 138.464844 735.867188 141.824219 727.234375 152.300781 717.496094 Z M 152.300781 717.496094 " fill-opacity="1" fill-rule="nonzero"/><g clip-path="url(#eb8588b66b)"><path fill="#216849" d="M 152.300781 766.191406 C 158.710938 751.816406 166.339844 748.136719 176.449219 766.191406 C 181.960938 775.585938 182.617188 784.101562 172.921875 790.539062 L 152.300781 790.539062 C 146.933594 783.988281 146.9375 775.867188 152.300781 766.191406 Z M 152.300781 766.191406 " fill-opacity="1" fill-rule="nonzero"/></g><g clip-path="url(#865c64bbe7)"><path fill="#216849" d="M 120.164062 766.207031 C 132.164062 772.140625 132.152344 780.253906 120.164062 790.539062 L 31.847656 790.539062 L 31.847656 766.207031 C 61.789062 754.511719 91.472656 748.871094 120.164062 766.207031 Z M 120.164062 766.207031 " fill-opacity="1" fill-rule="nonzero"/></g><g clip-path="url(#ed056d07a5)"><path fill="#216849" d="M 120.164062 741.84375 L 120.164062 741.859375 C 92.851562 759.171875 63.140625 756.96875 31.847656 741.859375 L 31.847656 717.511719 C 59.339844 701.8125 88.640625 700.699219 120.164062 717.511719 C 130.074219 727.132812 130.066406 735.242188 120.164062 741.84375 Z M 120.164062 741.84375 " fill-opacity="1" fill-rule="nonzero"/></g><path fill="#349370" d="M 176.140625 693.148438 L 193.621094 693.148438 C 201.4375 704.253906 199.433594 712.476562 186.613281 717.496094 L 152.222656 717.496094 C 144.15625 715.113281 147.128906 711.570312 152.222656 707.804688 C 145.691406 685.429688 161.222656 689.605469 176.140625 693.148438 Z M 176.140625 693.148438 " fill-opacity="1" fill-rule="nonzero"/><g clip-path="url(#456b9b44c5)"><path fill="#349370" d="M 120.164062 714.246094 L 120.164062 717.496094 L 31.847656 717.496094 L 31.847656 693.148438 L 62.464844 693.148438 C 90.417969 688.785156 108.5625 699.152344 119.351562 714.257812 C 119.625 714.257812 119.886719 714.257812 120.164062 714.246094 Z M 120.164062 714.246094 " fill-opacity="1" fill-rule="nonzero"/></g><g clip-path="url(#15d9f34c01)"><path fill="#8bcb8f" d="M 152.300781 766.191406 L 152.300781 790.539062 L 120.164062 790.539062 L 120.164062 714.246094 C 125.15625 699.460938 136.761719 698.933594 152.300781 707.804688 Z M 152.300781 766.191406 " fill-opacity="1" fill-rule="nonzero"/></g><path fill="#349370" d="M 152.300781 741.84375 L 180.988281 741.84375 C 189.953125 751.011719 187.1875 758.984375 176.449219 766.191406 L 152.300781 766.191406 Z M 152.300781 741.84375 " fill-opacity="1" fill-rule="nonzero"/><g clip-path="url(#bacc646a1a)"><path fill="#3b4d7b" d="M 641.578125 734.175781 C 639.125 723.261719 636.429688 712.832031 633.5 702.851562 C 628.578125 686.03125 623.011719 670.5 616.925781 656.179688 C 607.695312 634.332031 597.269531 615.242188 586.152344 598.574219 C 564.058594 565.457031 539.234375 541.875 515.40625 525.101562 C 453.574219 487.3125 385.902344 480.882812 308.785156 525.132812 C 307.820312 525.789062 306.867188 526.480469 305.902344 527.171875 C 293.253906 536.355469 280.359375 547.472656 267.785156 560.933594 C 262.21875 566.882812 256.730469 573.292969 251.363281 580.175781 C 249.539062 582.507812 247.730469 584.882812 245.953125 587.320312 C 241.058594 593.992188 236.277344 601.074219 231.644531 608.632812 C 217.21875 632.121094 204.199219 660.011719 193.699219 693.148438 C 191.214844 700.964844 188.867188 709.078125 186.691406 717.496094 C 184.652344 725.34375 182.75 733.457031 181.003906 741.84375 L 180.988281 741.84375 C 179.347656 749.707031 177.828125 757.835938 176.449219 766.191406 C 175.144531 774.085938 173.980469 782.199219 172.921875 790.539062 C 172.921875 790.554688 172.921875 790.585938 172.921875 790.601562 L 651.300781 790.601562 C 648.785156 770.5 645.503906 751.734375 641.578125 734.175781 Z M 641.578125 734.175781 " fill-opacity="1" fill-rule="nonzero"/></g><path fill="#c2e6f9" d="M 673.734375 380.851562 L 761.160156 380.851562 L 761.160156 702.347656 L 673.734375 702.347656 Z M 673.734375 380.851562 " fill-opacity="1" fill-rule="nonzero"/><path fill="#8ecaef" d="M 616.925781 656.179688 C 607.695312 634.332031 597.269531 615.242188 586.152344 598.574219 L 586.152344 380.851562 L 673.734375 380.851562 L 673.734375 702.347656 L 635.1875 702.347656 L 633.5 702.851562 C 628.578125 686.03125 623.011719 670.5 616.925781 656.179688 Z M 616.925781 656.179688 " fill-opacity="1" fill-rule="nonzero"/><path fill="#c2e6f9" d="M 586.152344 380.851562 L 586.152344 598.574219 C 564.058594 565.457031 539.234375 541.875 515.40625 525.101562 C 512.769531 523.230469 510.132812 521.453125 507.527344 519.765625 L 507.527344 405.828125 C 516.574219 397.578125 524.191406 388.960938 529.972656 380.851562 Z M 586.152344 380.851562 " fill-opacity="1" fill-rule="nonzero"/><path fill="#f48ca7" d="M 586.152344 322.710938 L 673.734375 322.710938 L 673.734375 380.851562 L 586.152344 380.851562 Z M 586.152344 322.710938 " fill-opacity="1" fill-rule="nonzero"/><path fill="#ea728c" d="M 673.734375 322.710938 L 761.160156 322.710938 L 761.160156 380.851562 L 673.734375 380.851562 Z M 673.734375 322.710938 " fill-opacity="1" fill-rule="nonzero"/><g clip-path="url(#82d881e374)"><path fill="#655f68" d="M 560.53125 139.960938 L 560.546875 139.960938 C 541.183594 82.203125 495.367188 30.101562 412.113281 30.101562 C 328.855469 30.101562 283.101562 82.21875 263.753906 139.992188 L 263.675781 139.960938 C 252.835938 174.6875 239.816406 202.59375 220.558594 218.800781 C 234.128906 221.285156 244.785156 218.738281 252.515625 211.378906 C 252.742188 231.449219 255.933594 249.695312 261.53125 263.753906 C 261.542969 263.753906 261.542969 263.753906 261.558594 263.753906 C 361.648438 387.0625 461.96875 408.777344 562.664062 263.753906 C 562.679688 263.753906 562.679688 263.753906 562.695312 263.753906 C 568.335938 249.679688 571.554688 231.449219 571.785156 211.363281 C 579.511719 218.722656 590.09375 221.285156 603.664062 218.800781 C 584.40625 202.59375 570.789062 174.71875 560.53125 139.960938 Z M 560.53125 139.960938 " fill-opacity="1" fill-rule="nonzero"/></g><path fill="#fec4b9" d="M 588.4375 289.714844 C 590.859375 298.835938 590.492188 309.324219 586.765625 319.460938 C 586.351562 320.5625 585.921875 321.652344 585.445312 322.710938 C 577.644531 340.234375 561.421875 350.613281 545.8125 348.773438 C 540.324219 326.167969 543.8125 296.25 562.695312 263.753906 C 564.535156 264.109375 566.375 264.582031 568.167969 265.304688 C 578.363281 269.367188 585.476562 278.535156 588.4375 289.714844 Z M 588.4375 289.714844 " fill-opacity="1" fill-rule="nonzero"/><path fill="#fec4b9" d="M 278.410156 348.773438 C 261.867188 350.738281 244.632812 338.945312 237.457031 319.460938 C 229.175781 296.933594 237.503906 272.695312 256.054688 265.304688 C 257.847656 264.582031 259.691406 264.109375 261.53125 263.753906 C 282.445312 291.785156 283.503906 322.917969 278.410156 348.773438 Z M 278.410156 348.773438 " fill-opacity="1" fill-rule="nonzero"/><path fill="#ea728c" d="M 586.152344 322.710938 L 586.152344 380.851562 L 529.972656 380.851562 C 531.753906 378.351562 533.347656 375.914062 534.773438 373.550781 C 538.757812 366.898438 542.46875 358.511719 545.8125 348.773438 C 561.421875 350.613281 577.644531 340.234375 585.445312 322.710938 Z M 586.152344 322.710938 " fill-opacity="1" fill-rule="nonzero"/><path fill="#ffd7d2" d="M 507.527344 405.828125 C 491.6875 420.285156 471.449219 433.59375 448.910156 441.015625 C 437.164062 444.878906 424.808594 447.148438 412.113281 447.148438 C 399.414062 447.148438 387.058594 444.878906 375.3125 441.015625 C 335.96875 428.058594 303.617188 397.164062 289.449219 373.550781 C 285.464844 366.898438 281.753906 358.511719 278.410156 348.773438 C 270.636719 326.175781 264.75 296.261719 261.53125 263.753906 C 261.542969 263.753906 261.542969 263.753906 261.558594 263.753906 C 297.085938 236.492188 327.707031 175.363281 342.914062 136.984375 C 369.316406 163.019531 396.761719 175.839844 431.015625 174.519531 C 421.433594 166.210938 422.261719 151 428.273438 140.773438 C 456.46875 171.699219 500.121094 187.277344 532.335938 192.441406 C 532.074219 225.5 543.773438 247.855469 562.664062 263.753906 C 562.679688 263.753906 562.679688 263.753906 562.695312 263.753906 C 559.472656 296.261719 553.585938 326.175781 545.8125 348.773438 C 542.46875 358.511719 538.757812 366.898438 534.773438 373.550781 C 533.347656 375.914062 531.753906 378.351562 529.972656 380.851562 C 524.191406 388.960938 516.574219 397.578125 507.527344 405.828125 Z M 507.527344 405.828125 " fill-opacity="1" fill-rule="nonzero"/><path fill="#5d5560" d="M 485.675781 263.15625 C 485.675781 263.964844 485.597656 264.761719 485.441406 265.550781 C 485.285156 266.339844 485.050781 267.109375 484.742188 267.851562 C 484.433594 268.59375 484.058594 269.300781 483.609375 269.972656 C 483.164062 270.640625 482.65625 271.261719 482.085938 271.832031 C 481.515625 272.402344 480.894531 272.910156 480.226562 273.355469 C 479.554688 273.804688 478.847656 274.183594 478.105469 274.488281 C 477.359375 274.796875 476.59375 275.03125 475.804688 275.1875 C 475.015625 275.34375 474.21875 275.421875 473.410156 275.421875 C 472.605469 275.421875 471.808594 275.34375 471.019531 275.1875 C 470.226562 275.03125 469.460938 274.796875 468.71875 274.488281 C 467.972656 274.183594 467.265625 273.804688 466.597656 273.355469 C 465.925781 272.910156 465.308594 272.402344 464.738281 271.832031 C 464.167969 271.261719 463.660156 270.640625 463.210938 269.972656 C 462.765625 269.300781 462.386719 268.59375 462.078125 267.851562 C 461.769531 267.109375 461.539062 266.339844 461.382812 265.550781 C 461.222656 264.761719 461.144531 263.964844 461.144531 263.15625 C 461.144531 262.351562 461.222656 261.554688 461.382812 260.765625 C 461.539062 259.972656 461.769531 259.207031 462.078125 258.464844 C 462.386719 257.71875 462.765625 257.011719 463.210938 256.34375 C 463.660156 255.671875 464.167969 255.054688 464.738281 254.484375 C 465.308594 253.914062 465.925781 253.40625 466.597656 252.957031 C 467.265625 252.511719 467.972656 252.132812 468.71875 251.824219 C 469.460938 251.515625 470.226562 251.285156 471.019531 251.128906 C 471.808594 250.96875 472.605469 250.890625 473.410156 250.890625 C 474.21875 250.890625 475.015625 250.96875 475.804688 251.128906 C 476.59375 251.285156 477.359375 251.515625 478.105469 251.824219 C 478.847656 252.132812 479.554688 252.511719 480.226562 252.957031 C 480.894531 253.40625 481.515625 253.914062 482.085938 254.484375 C 482.65625 255.054688 483.164062 255.671875 483.609375 256.34375 C 484.058594 257.011719 484.433594 257.71875 484.742188 258.464844 C 485.050781 259.207031 485.285156 259.972656 485.441406 260.765625 C 485.597656 261.554688 485.675781 262.351562 485.675781 263.15625 Z M 485.675781 263.15625 " fill-opacity="1" fill-rule="nonzero"/><path fill="#52a7d7" d="M 473.441406 501.210938 L 473.441406 501.226562 L 448.847656 565.425781 L 412.800781 542.410156 L 448.789062 491.828125 C 456.238281 494.191406 464.550781 497.257812 473.441406 501.210938 Z M 473.441406 501.210938 " fill-opacity="1" fill-rule="nonzero"/><path fill="#ffd7d2" d="M 375.3125 441.015625 L 375.3125 491.875 L 412.800781 542.410156 L 448.789062 491.828125 L 448.816406 482.0625 L 448.910156 441.015625 Z M 375.3125 441.015625 " fill-opacity="1" fill-rule="nonzero"/><path fill="#f7b6ad" d="M 448.203125 300.09375 C 450.964844 309.84375 445.261719 320.011719 435.507812 322.769531 C 427.765625 324.964844 419.902344 326.082031 412.097656 326.082031 C 404.277344 326.082031 396.410156 324.964844 388.667969 322.769531 C 378.917969 320.011719 373.226562 309.816406 375.988281 300.0625 C 378.210938 292.183594 385.492188 286.664062 393.679688 286.664062 C 395.382812 286.664062 397.085938 286.90625 398.726562 287.382812 C 403.15625 288.625 407.648438 289.269531 412.082031 289.269531 C 416.527344 289.269531 421.035156 288.625 425.480469 287.367188 C 427.105469 286.90625 428.792969 286.679688 430.480469 286.679688 C 438.699219 286.679688 445.980469 292.199219 448.203125 300.09375 Z M 448.203125 300.09375 " fill-opacity="1" fill-rule="nonzero"/><path fill="#c2e6f9" d="M 412.800781 737.8125 C 420.789062 737.8125 427.277344 744.28125 427.277344 752.285156 C 427.277344 760.289062 420.789062 766.773438 412.800781 766.773438 C 404.796875 766.773438 398.3125 760.289062 398.3125 752.285156 C 398.3125 744.28125 404.796875 737.8125 412.800781 737.8125 Z M 412.800781 737.8125 " fill-opacity="1" fill-rule="nonzero"/><path fill="#52a7d7" d="M 375.3125 491.875 L 412.800781 542.410156 L 375.3125 565.425781 L 350.78125 501.226562 C 359.613281 497.289062 367.890625 494.234375 375.3125 491.875 Z M 375.3125 491.875 " fill-opacity="1" fill-rule="nonzero"/><path fill="#c2e6f9" d="M 473.441406 501.210938 L 473.441406 501.226562 L 448.847656 565.425781 L 412.800781 542.410156 L 375.3125 565.425781 L 350.78125 501.226562 C 344.339844 504.09375 337.609375 507.421875 330.679688 511.316406 L 412.265625 711.835938 L 493.542969 511.316406 C 486.613281 507.421875 479.867188 504.09375 473.441406 501.210938 Z M 473.441406 501.210938 " fill-opacity="1" fill-rule="nonzero"/><path fill="#52a7d7" d="M 515.40625 525.101562 L 532.042969 604.125 L 493.542969 622.277344 L 520.269531 659.460938 L 412.265625 711.835938 L 493.542969 511.316406 C 498.128906 513.878906 502.804688 516.683594 507.527344 519.765625 C 510.132812 521.453125 512.769531 523.230469 515.40625 525.101562 Z M 515.40625 525.101562 " fill-opacity="1" fill-rule="nonzero"/><path fill="#52a7d7" d="M 330.679688 511.316406 L 412.265625 711.835938 L 302.914062 660.089844 L 330.648438 622.277344 L 292.148438 604.125 L 308.785156 525.132812 C 314.75 520.914062 320.636719 517.144531 326.417969 513.753906 C 327.84375 512.910156 329.269531 512.097656 330.679688 511.316406 Z M 330.679688 511.316406 " fill-opacity="1" fill-rule="nonzero"/><path fill="#5d5560" d="M 363.015625 263.15625 C 363.015625 263.964844 362.9375 264.761719 362.78125 265.550781 C 362.625 266.339844 362.390625 267.109375 362.082031 267.851562 C 361.773438 268.59375 361.398438 269.300781 360.949219 269.972656 C 360.5 270.640625 359.992188 271.261719 359.421875 271.832031 C 358.855469 272.402344 358.234375 272.910156 357.566406 273.355469 C 356.894531 273.804688 356.1875 274.183594 355.445312 274.488281 C 354.699219 274.796875 353.933594 275.03125 353.144531 275.1875 C 352.351562 275.34375 351.554688 275.421875 350.75 275.421875 C 349.945312 275.421875 349.148438 275.34375 348.355469 275.1875 C 347.566406 275.03125 346.800781 274.796875 346.054688 274.488281 C 345.3125 274.183594 344.605469 273.804688 343.933594 273.355469 C 343.265625 272.910156 342.644531 272.402344 342.078125 271.832031 C 341.507812 271.261719 341 270.640625 340.550781 269.972656 C 340.105469 269.300781 339.726562 268.59375 339.417969 267.851562 C 339.109375 267.109375 338.875 266.339844 338.71875 265.550781 C 338.5625 264.761719 338.484375 263.964844 338.484375 263.15625 C 338.484375 262.351562 338.5625 261.554688 338.71875 260.765625 C 338.875 259.972656 339.109375 259.207031 339.417969 258.464844 C 339.726562 257.71875 340.105469 257.011719 340.550781 256.34375 C 341 255.671875 341.507812 255.054688 342.078125 254.484375 C 342.644531 253.914062 343.265625 253.40625 343.933594 252.957031 C 344.605469 252.511719 345.3125 252.132812 346.054688 251.824219 C 346.800781 251.515625 347.566406 251.285156 348.355469 251.128906 C 349.148438 250.96875 349.945312 250.890625 350.75 250.890625 C 351.554688 250.890625 352.351562 250.96875 353.144531 251.128906 C 353.933594 251.285156 354.699219 251.515625 355.445312 251.824219 C 356.1875 252.132812 356.894531 252.511719 357.566406 252.957031 C 358.234375 253.40625 358.855469 253.914062 359.421875 254.484375 C 359.992188 255.054688 360.5 255.671875 360.949219 256.34375 C 361.394531 257.011719 361.773438 257.71875 362.082031 258.464844 C 362.390625 259.207031 362.625 259.972656 362.78125 260.765625 C 362.9375 261.554688 363.015625 262.351562 363.015625 263.15625 Z M 363.015625 263.15625 " fill-opacity="1" fill-rule="nonzero"/><path fill="#52a7d7" d="M 406.648438 548.523438 L 406.152344 705.421875 C 406.140625 708.625 408.472656 711.492188 411.664062 711.804688 C 415.320312 712.167969 418.40625 709.308594 418.417969 705.722656 L 418.914062 548.5625 C 418.925781 545.175781 416.1875 542.421875 412.800781 542.410156 C 409.414062 542.402344 406.660156 545.136719 406.648438 548.523438 Z M 406.648438 548.523438 " fill-opacity="1" fill-rule="nonzero"/><path fill="#ae2c36" d="M 175.484375 495.96875 C 165.453125 509.753906 159.367188 526.589844 158.890625 544.832031 C 144.339844 535.550781 139.644531 527.136719 153.957031 520.394531 L 153.957031 520.378906 C 113.820312 501.402344 112.734375 463.550781 132.859375 415.441406 L 124.269531 372.753906 L 211.484375 355.214844 L 232.703125 461.011719 L 232.703125 461.027344 C 209.246094 464.613281 188.851562 477.570312 175.484375 495.96875 Z M 175.484375 495.96875 " fill-opacity="1" fill-rule="nonzero"/><path fill="#f9b132" d="M 140.65625 519.351562 C 152.707031 520.148438 148.710938 544.28125 158.921875 549.496094 C 165.730469 552.960938 172.015625 557.316406 177.644531 562.375 C 182.105469 566.390625 186.140625 570.867188 189.679688 575.714844 C 189.695312 575.730469 189.695312 575.746094 189.710938 575.761719 C 192.027344 578.902344 194.113281 582.199219 195.980469 585.632812 C 195.96875 585.664062 195.980469 585.679688 195.996094 585.679688 C 202.683594 598.007812 206.46875 612.128906 206.46875 627.125 C 206.46875 653.511719 194.742188 677.15625 176.21875 693.148438 C 169.148438 699.234375 161.085938 704.21875 152.300781 707.804688 C 142.363281 711.867188 131.523438 714.152344 120.164062 714.246094 C 119.886719 714.257812 119.625 714.257812 119.351562 714.257812 C 97.625 714.257812 77.738281 706.300781 62.464844 693.148438 C 43.945312 677.15625 32.214844 653.511719 32.214844 627.125 C 32.214844 586.523438 59.980469 552.421875 97.578125 542.75 C 104.539062 540.953125 104.476562 520.714844 111.992188 520.714844 C 114 520.714844 138.695312 519.199219 140.65625 519.351562 Z M 140.65625 519.351562 " fill-opacity="1" fill-rule="nonzero"/><path fill="#dc4e4f" d="M 194.527344 405.628906 C 196.488281 415.335938 190.1875 424.792969 180.480469 426.757812 C 170.761719 428.703125 161.300781 422.417969 159.351562 412.695312 C 157.390625 402.976562 163.691406 393.515625 173.398438 391.570312 C 183.117188 389.621094 192.578125 395.90625 194.527344 405.628906 Z M 194.527344 405.628906 " fill-opacity="1" fill-rule="nonzero"/><path fill="#f97732" d="M 125.296875 540.21875 C 123.335938 540.066406 121.359375 540.003906 119.351562 540.003906 C 111.835938 540.003906 104.539062 540.953125 97.578125 542.75 L 41.230469 431.265625 L 120.589844 391.15625 L 132.859375 415.441406 L 153.957031 520.378906 L 153.957031 520.394531 L 158.890625 544.832031 C 158.878906 545.617188 158.863281 546.398438 158.863281 547.179688 C 158.863281 547.976562 158.863281 548.699219 158.921875 549.496094 C 148.710938 544.28125 137.351562 541.015625 125.296875 540.21875 Z M 125.296875 540.21875 " fill-opacity="1" fill-rule="nonzero"/><g clip-path="url(#7205faa09d)"><path fill="#349370" d="M 31.847656 741.859375 L 120.164062 741.859375 L 120.164062 766.191406 L 31.847656 766.191406 Z M 31.847656 741.859375 " fill-opacity="1" fill-rule="nonzero"/></g><path fill="#ffc05a" d="M 169.105469 588.269531 C 157.558594 573.492188 139.558594 564 119.351562 564 C 84.484375 564 56.210938 592.257812 56.210938 627.125 C 56.210938 661.992188 84.484375 690.265625 119.351562 690.265625 C 154.214844 690.265625 182.472656 661.992188 182.472656 627.125 C 182.472656 612.464844 177.476562 598.988281 169.105469 588.269531 Z M 169.105469 588.269531 " fill-opacity="1" fill-rule="nonzero"/><path fill="#ffa25a" d="M 117.710938 444.28125 C 122.171875 453.128906 118.628906 463.921875 109.78125 468.402344 C 100.933594 472.863281 90.140625 469.320312 85.664062 460.472656 C 81.203125 451.625 84.742188 440.832031 93.589844 436.371094 C 102.4375 431.894531 113.230469 435.433594 117.710938 444.28125 Z M 117.710938 444.28125 " fill-opacity="1" fill-rule="nonzero"/><path fill="#f7b6ad" d="M 448.910156 441.015625 L 448.816406 482.0625 C 446.257812 482.230469 443.679688 482.308594 441.074219 482.308594 C 416.925781 482.308594 394.386719 475.421875 375.3125 463.492188 L 375.3125 441.015625 C 387.058594 444.878906 399.417969 447.148438 412.113281 447.148438 C 424.808594 447.148438 437.164062 444.878906 448.910156 441.015625 Z M 448.910156 441.015625 " fill-opacity="1" fill-rule="nonzero"/><path fill="#524956" d="M 493.539062 211.273438 C 492.316406 211.273438 491.082031 210.910156 490.011719 210.152344 C 478.925781 202.339844 462.90625 204.960938 462.746094 204.988281 C 459.417969 205.558594 456.242188 203.320312 455.664062 199.992188 C 455.085938 196.660156 457.304688 193.492188 460.632812 192.90625 C 461.488281 192.757812 481.765625 189.335938 497.078125 200.125 C 499.847656 202.078125 500.507812 205.902344 498.558594 208.671875 C 497.363281 210.367188 495.464844 211.273438 493.539062 211.273438 Z M 493.539062 211.273438 " fill-opacity="1" fill-rule="nonzero"/><path fill="#524956" d="M 330.683594 211.273438 C 328.757812 211.273438 326.859375 210.367188 325.664062 208.671875 C 323.714844 205.902344 324.378906 202.078125 327.144531 200.125 C 342.457031 189.335938 362.730469 192.757812 363.589844 192.90625 C 366.925781 193.492188 369.152344 196.671875 368.566406 200.011719 C 367.976562 203.339844 364.800781 205.566406 361.476562 204.988281 C 361.316406 204.964844 345.296875 202.34375 334.210938 210.152344 C 333.140625 210.910156 331.90625 211.273438 330.683594 211.273438 Z M 330.683594 211.273438 " fill-opacity="1" fill-rule="nonzero"/><g clip-path="url(#261fd6feac)"><path fill="#32446d" d="M 560.53125 790.601562 L 560.53125 701.644531 C 560.53125 696.941406 564.34375 693.132812 569.046875 693.132812 C 573.398438 693.132812 577.046875 696.425781 577.507812 700.753906 C 582.03125 743.175781 590.484375 777.679688 609.625 790.601562 Z M 560.53125 790.601562 " fill-opacity="1" fill-rule="nonzero"/></g><g clip-path="url(#c572c1b9f3)"><path fill="#32446d" d="M 263.15625 790.601562 L 263.15625 702.097656 C 263.15625 697.144531 259.140625 693.132812 254.1875 693.132812 C 249.847656 693.132812 246.128906 696.242188 245.367188 700.515625 C 237.832031 742.640625 227.941406 779.523438 206.472656 790.601562 Z M 263.15625 790.601562 " fill-opacity="1" fill-rule="nonzero"/></g><path fill="#f9eac7" d="M 120.085938 666.636719 C 119.699219 666.636719 119.3125 666.628906 118.929688 666.59375 C 103.683594 665.945312 96.847656 652.269531 95.359375 645.097656 C 94.671875 641.78125 96.804688 638.535156 100.121094 637.847656 C 103.433594 637.148438 106.683594 639.289062 107.371094 642.605469 C 107.46875 643.035156 110 654.011719 119.5625 654.34375 C 119.695312 654.347656 119.828125 654.355469 119.957031 654.367188 L 120.085938 654.367188 C 133.734375 654.367188 134.980469 644.292969 135.035156 641.207031 C 135.035156 637.40625 125.875 634.410156 118.519531 632 L 117.4375 631.648438 C 107.1875 628.285156 93.152344 623.675781 92.75 610.648438 C 92.75 610.585938 92.746094 610.519531 92.746094 610.457031 C 92.746094 604.148438 97.519531 587.742188 119.316406 587.628906 L 119.535156 587.628906 C 136.183594 587.628906 142.796875 604.621094 143.074219 605.347656 C 144.269531 608.511719 142.671875 612.054688 139.503906 613.25 C 136.34375 614.441406 132.816406 612.863281 131.609375 609.710938 C 131.433594 609.257812 127.640625 599.894531 119.535156 599.894531 L 119.351562 599.894531 C 106.550781 599.960938 105.132812 607.777344 105.019531 610.402344 C 105.308594 614.425781 112.867188 617.234375 121.265625 619.992188 L 122.335938 620.34375 C 133.457031 623.984375 147.304688 628.511719 147.304688 641.261719 C 147.300781 648.320312 142.410156 666.636719 120.085938 666.636719 Z M 120.105469 654.386719 C 120.105469 654.386719 120.105469 654.386719 120.109375 654.386719 C 120.105469 654.386719 120.105469 654.386719 120.105469 654.386719 Z M 120.105469 654.386719 " fill-opacity="1" fill-rule="nonzero"/><path fill="#f9eac7" d="M 119.351562 678.398438 C 115.960938 678.398438 113.214844 675.652344 113.214844 672.261719 L 113.214844 583.902344 C 113.214844 580.515625 115.960938 577.769531 119.351562 577.769531 C 122.738281 577.769531 125.484375 580.515625 125.484375 583.902344 L 125.484375 672.261719 C 125.484375 675.652344 122.738281 678.398438 119.351562 678.398438 Z M 119.351562 678.398438 " fill-opacity="1" fill-rule="nonzero"/><path fill="#f9eac7" d="M 203.925781 468.4375 C 201.0625 468.4375 198.503906 466.425781 197.917969 463.511719 L 195.105469 449.523438 C 194.4375 446.203125 196.589844 442.96875 199.910156 442.300781 C 203.226562 441.628906 206.460938 443.78125 207.128906 447.105469 L 209.945312 461.09375 C 210.613281 464.414062 208.460938 467.648438 205.140625 468.316406 C 204.734375 468.398438 204.328125 468.4375 203.925781 468.4375 Z M 203.925781 468.4375 " fill-opacity="1" fill-rule="nonzero"/><path fill="#f9eac7" d="M 172.726562 488.441406 C 169.867188 488.441406 167.308594 486.429688 166.722656 483.515625 L 161.253906 456.332031 C 160.582031 453.011719 162.734375 449.777344 166.054688 449.109375 C 169.371094 448.4375 172.609375 450.589844 173.277344 453.914062 L 178.746094 481.097656 C 179.414062 484.417969 177.261719 487.652344 173.941406 488.320312 C 173.535156 488.402344 173.128906 488.441406 172.726562 488.441406 Z M 172.726562 488.441406 " fill-opacity="1" fill-rule="nonzero"/><path fill="#ffa25a" d="M 143.253906 503.941406 C 140.835938 503.941406 138.746094 502.546875 137.746094 500.515625 L 130.074219 486.695312 C 128.429688 483.734375 129.496094 480 132.460938 478.359375 C 135.417969 476.714844 139.152344 477.78125 140.796875 480.742188 L 148.617188 494.828125 C 149.121094 495.738281 149.386719 496.761719 149.386719 497.800781 C 149.386719 501.1875 146.640625 503.941406 143.253906 503.941406 Z M 143.253906 503.941406 " fill-opacity="1" fill-rule="nonzero"/><path fill="#ffa25a" d="M 119.335938 532.316406 C 117.117188 532.316406 114.984375 531.109375 113.902344 529.011719 L 99.265625 502.222656 C 97.640625 499.25 98.734375 495.523438 101.703125 493.898438 C 104.679688 492.273438 108.402344 493.367188 110.027344 496.339844 L 124.714844 523.222656 C 124.761719 523.304688 124.804688 523.390625 124.847656 523.472656 C 126.332031 526.519531 125.074219 530.207031 122.03125 531.691406 C 121.160156 532.117188 120.242188 532.316406 119.335938 532.316406 Z M 119.335938 532.316406 " fill-opacity="1" fill-rule="nonzero"/><path fill="#ae2c36" d="M 713.183594 447.992188 C 709.796875 447.992188 707.050781 445.246094 707.050781 441.859375 L 707.050781 408.726562 C 707.050781 405.339844 709.796875 402.59375 713.183594 402.59375 C 716.570312 402.59375 719.316406 405.339844 719.316406 408.726562 L 719.316406 441.859375 C 719.316406 445.246094 716.570312 447.992188 713.183594 447.992188 Z M 713.183594 447.992188 " fill-opacity="1" fill-rule="nonzero"/><path fill="#ae2c36" d="M 729.757812 431.417969 L 696.609375 431.417969 C 693.222656 431.417969 690.476562 428.671875 690.476562 425.285156 C 690.476562 421.898438 693.222656 419.152344 696.609375 419.152344 L 729.757812 419.152344 C 733.144531 419.152344 735.890625 421.898438 735.890625 425.285156 C 735.890625 428.671875 733.144531 431.417969 729.757812 431.417969 Z M 729.757812 431.417969 " fill-opacity="1" fill-rule="nonzero"/><path fill="#ae2c36" d="M 713.183594 553.957031 C 709.796875 553.957031 707.050781 551.210938 707.050781 547.824219 L 707.050781 514.675781 C 707.050781 511.289062 709.796875 508.542969 713.183594 508.542969 C 716.570312 508.542969 719.316406 511.289062 719.316406 514.675781 L 719.316406 547.824219 C 719.316406 551.210938 716.570312 553.957031 713.183594 553.957031 Z M 713.183594 553.957031 " fill-opacity="1" fill-rule="nonzero"/><path fill="#ae2c36" d="M 729.757812 537.382812 L 696.609375 537.382812 C 693.222656 537.382812 690.476562 534.636719 690.476562 531.25 C 690.476562 527.863281 693.222656 525.117188 696.609375 525.117188 L 729.757812 525.117188 C 733.144531 525.117188 735.890625 527.863281 735.890625 531.25 C 735.890625 534.636719 733.144531 537.382812 729.757812 537.382812 Z M 729.757812 537.382812 " fill-opacity="1" fill-rule="nonzero"/><path fill="#ae2c36" d="M 713.183594 621.863281 C 709.796875 621.863281 707.050781 619.117188 707.050781 615.730469 L 707.050781 582.582031 C 707.050781 579.195312 709.796875 576.449219 713.183594 576.449219 C 716.570312 576.449219 719.316406 579.195312 719.316406 582.582031 L 719.316406 615.730469 C 719.316406 619.117188 716.570312 621.863281 713.183594 621.863281 Z M 713.183594 621.863281 " fill-opacity="1" fill-rule="nonzero"/><path fill="#ae2c36" d="M 729.757812 605.289062 L 696.609375 605.289062 C 693.222656 605.289062 690.476562 602.542969 690.476562 599.15625 C 690.476562 595.769531 693.222656 593.023438 696.609375 593.023438 L 729.757812 593.023438 C 733.144531 593.023438 735.890625 595.769531 735.890625 599.15625 C 735.890625 602.542969 733.144531 605.289062 729.757812 605.289062 Z M 729.757812 605.289062 " fill-opacity="1" fill-rule="nonzero"/><path fill="#ae2c36" d="M 729.757812 662.3125 L 696.609375 662.3125 C 693.222656 662.3125 690.476562 659.566406 690.476562 656.179688 C 690.476562 652.792969 693.222656 650.046875 696.609375 650.046875 L 729.757812 650.046875 C 733.144531 650.046875 735.890625 652.792969 735.890625 656.179688 C 735.890625 659.566406 733.144531 662.3125 729.757812 662.3125 Z M 729.757812 662.3125 " fill-opacity="1" fill-rule="nonzero"/><path fill="#ae2c36" d="M 729.757812 485.050781 L 696.609375 485.050781 C 693.222656 485.050781 690.476562 482.304688 690.476562 478.917969 C 690.476562 475.53125 693.222656 472.785156 696.609375 472.785156 L 729.757812 472.785156 C 733.144531 472.785156 735.890625 475.53125 735.890625 478.917969 C 735.890625 482.304688 733.144531 485.050781 729.757812 485.050781 Z M 729.757812 485.050781 " fill-opacity="1" fill-rule="nonzero"/><path fill="#ae2c36" d="M 631.0625 556.347656 C 627.675781 556.347656 624.929688 553.601562 624.929688 550.214844 L 624.929688 517.066406 C 624.929688 513.679688 627.675781 510.933594 631.0625 510.933594 C 634.449219 510.933594 637.195312 513.679688 637.195312 517.066406 L 637.195312 550.214844 C 637.195312 553.601562 634.449219 556.347656 631.0625 556.347656 Z M 631.0625 556.347656 " fill-opacity="1" fill-rule="nonzero"/><path fill="#ae2c36" d="M 647.636719 539.773438 L 614.488281 539.773438 C 611.101562 539.773438 608.355469 537.027344 608.355469 533.640625 C 608.355469 530.253906 611.101562 527.507812 614.488281 527.507812 L 647.636719 527.507812 C 651.023438 527.507812 653.769531 530.253906 653.769531 533.640625 C 653.769531 537.027344 651.023438 539.773438 647.636719 539.773438 Z M 647.636719 539.773438 " fill-opacity="1" fill-rule="nonzero"/><path fill="#ae2c36" d="M 631.0625 488.441406 C 627.675781 488.441406 624.929688 485.695312 624.929688 482.308594 L 624.929688 449.171875 C 624.929688 445.785156 627.675781 443.039062 631.0625 443.039062 C 634.449219 443.039062 637.195312 445.785156 637.195312 449.171875 L 637.195312 482.308594 C 637.195312 485.695312 634.449219 488.441406 631.0625 488.441406 Z M 631.0625 488.441406 " fill-opacity="1" fill-rule="nonzero"/><path fill="#ae2c36" d="M 647.636719 471.882812 L 614.488281 471.882812 C 611.101562 471.882812 608.355469 469.136719 608.355469 465.746094 C 608.355469 462.359375 611.101562 459.613281 614.488281 459.613281 L 647.636719 459.613281 C 651.023438 459.613281 653.769531 462.359375 653.769531 465.746094 C 653.769531 469.136719 651.023438 471.882812 647.636719 471.882812 Z M 647.636719 471.882812 " fill-opacity="1" fill-rule="nonzero"/><path fill="#ae2c36" d="M 647.636719 414.859375 L 614.488281 414.859375 C 611.101562 414.859375 608.355469 412.113281 608.355469 408.726562 C 608.355469 405.339844 611.101562 402.59375 614.488281 402.59375 L 647.636719 402.59375 C 651.023438 402.59375 653.769531 405.339844 653.769531 408.726562 C 653.769531 412.113281 651.023438 414.859375 647.636719 414.859375 Z M 647.636719 414.859375 " fill-opacity="1" fill-rule="nonzero"/><path fill="#ae2c36" d="M 545.84375 488.441406 C 542.457031 488.441406 539.710938 485.695312 539.710938 482.308594 L 539.710938 449.171875 C 539.710938 445.785156 542.457031 443.039062 545.84375 443.039062 C 549.230469 443.039062 551.976562 445.785156 551.976562 449.171875 L 551.976562 482.308594 C 551.976562 485.695312 549.230469 488.441406 545.84375 488.441406 Z M 545.84375 488.441406 " fill-opacity="1" fill-rule="nonzero"/><path fill="#ae2c36" d="M 562.417969 471.882812 L 529.285156 471.882812 C 525.898438 471.882812 523.152344 469.136719 523.152344 465.746094 C 523.152344 462.359375 525.898438 459.613281 529.285156 459.613281 L 562.417969 459.613281 C 565.804688 459.613281 568.550781 462.359375 568.550781 465.746094 C 568.550781 469.136719 565.804688 471.882812 562.417969 471.882812 Z M 562.417969 471.882812 " fill-opacity="1" fill-rule="nonzero"/><path fill="#ae2c36" d="M 562.417969 414.859375 L 529.285156 414.859375 C 525.898438 414.859375 523.152344 412.113281 523.152344 408.726562 C 523.152344 405.339844 525.898438 402.59375 529.285156 402.59375 L 562.417969 402.59375 C 565.804688 402.59375 568.550781 405.339844 568.550781 408.726562 C 568.550781 412.113281 565.804688 414.859375 562.417969 414.859375 Z M 562.417969 414.859375 " fill-opacity="1" fill-rule="nonzero"/><path fill="#ae2c36" d="M 647.636719 592.105469 L 614.488281 592.105469 C 611.101562 592.105469 608.355469 589.359375 608.355469 585.972656 C 608.355469 582.585938 611.101562 579.839844 614.488281 579.839844 L 647.636719 579.839844 C 651.023438 579.839844 653.769531 582.585938 653.769531 585.972656 C 653.769531 589.359375 651.023438 592.105469 647.636719 592.105469 Z M 647.636719 592.105469 " fill-opacity="1" fill-rule="nonzero"/><g clip-path="url(#0df0a85157)"><g clip-path="url(#4e70b13eb2)"><path stroke-linecap="butt" transform="matrix(0.75, 0, 0, 0.75, 22.84878, 18.259926)" fill="none" stroke-linejoin="miter" d="M 38.076629 0.00238985 L 987.446468 0.00238985 C 997.545427 0.00238985 1007.227719 4.012807 1014.373553 11.153432 C 1021.514178 18.294057 1025.524595 27.981558 1025.524595 38.080517 L 1025.524595 991.231606 C 1025.524595 1001.330565 1021.514178 1011.018066 1014.373553 1018.158691 C 1007.227719 1025.299316 997.545427 1029.314942 987.446468 1029.314942 L 38.076629 1029.314942 C 27.97767 1029.314942 18.295378 1025.299316 11.154753 1018.158691 C 4.014127 1011.018066 -0.00149795 1001.330565 -0.00149795 991.231606 L -0.00149795 38.080517 C -0.00149795 27.981558 4.014127 18.294057 11.154753 11.153432 C 18.295378 4.012807 27.97767 0.00238985 38.076629 0.00238985 Z M 38.076629 0.00238985 " stroke="#e4bddb" stroke-width="32" stroke-opacity="1" stroke-miterlimit="4"/></g></g></svg>